<svg width="40" height="40" viewBox="0 0 40 40" fill="none" xmlns="http://www.w3.org/2000/svg">
<path d="M24.4746 2.90039C25.0647 2.90039 25.6306 3.13449 26.0479 3.55176C26.4651 3.96903 26.6992 4.53489 26.6992 5.125V6.40039H31.4746C31.6006 6.40039 31.7215 6.44998 31.8105 6.53906C31.8996 6.62814 31.9492 6.74902 31.9492 6.875V15.1504H36.7246C36.8506 15.1504 36.9715 15.2 37.0605 15.2891C37.1496 15.3781 37.1992 15.499 37.1992 15.625V36.625C37.1992 36.751 37.1496 36.8719 37.0605 36.9609C36.9715 37.05 36.8506 37.0996 36.7246 37.0996H3.47461C3.34863 37.0996 3.22775 37.05 3.13867 36.9609C3.04959 36.8719 3 36.751 3 36.625V15.625C3 15.499 3.04959 15.3781 3.13867 15.2891C3.22775 15.2 3.34863 15.1504 3.47461 15.1504H8.25V6.875C8.25 6.74902 8.29959 6.62814 8.38867 6.53906C8.47775 6.44998 8.59863 6.40039 8.72461 6.40039H13.5V5.125C13.5 4.53489 13.7341 3.96903 14.1514 3.55176C14.5686 3.13449 15.1345 2.90039 15.7246 2.90039H24.4746ZM3.94922 16.0996V36.1504H8.25V16.0996H3.94922ZM9.19922 7.34961V36.1504H16.125V28.75C16.125 28.624 16.1746 28.5031 16.2637 28.4141C16.3528 28.325 16.4736 28.2754 16.5996 28.2754H23.5996C23.7256 28.2754 23.8465 28.325 23.9355 28.4141C24.0246 28.5031 24.0742 28.624 24.0742 28.75V36.1504H31V7.34961H26.6992V13.875C26.6992 14.4651 26.4651 15.031 26.0479 15.4482C25.6306 15.8655 25.0647 16.0996 24.4746 16.0996H15.7246C15.1345 16.0996 14.5686 15.8655 14.1514 15.4482C13.7341 15.031 13.5 14.4651 13.5 13.875V7.34961H9.19922ZM17.0742 29.2246V36.1504H23.125V29.2246H17.0742ZM31.9492 16.0996V36.1504H36.25V16.0996H31.9492ZM15.7246 23.9004C15.8506 23.9004 15.9715 23.95 16.0605 24.0391C16.1496 24.1281 16.1992 24.249 16.1992 24.375C16.1992 24.501 16.1496 24.6219 16.0605 24.7109C15.9715 24.8 15.8506 24.8496 15.7246 24.8496H13.9746C13.8486 24.8496 13.7278 24.8 13.6387 24.7109C13.5496 24.6219 13.5 24.501 13.5 24.375C13.5 24.249 13.5496 24.1281 13.6387 24.0391C13.7278 23.95 13.8486 23.9004 13.9746 23.9004H15.7246ZM20.9746 23.9004C21.1006 23.9004 21.2215 23.95 21.3105 24.0391C21.3996 24.1281 21.4492 24.249 21.4492 24.375C21.4492 24.501 21.3996 24.6219 21.3105 24.7109C21.2215 24.8 21.1006 24.8496 20.9746 24.8496H19.2246C19.0986 24.8496 18.9778 24.8 18.8887 24.7109C18.7996 24.6219 18.75 24.501 18.75 24.375C18.75 24.249 18.7996 24.1281 18.8887 24.0391C18.9778 23.95 19.0986 23.9004 19.2246 23.9004H20.9746ZM26.2246 23.9004C26.3506 23.9004 26.4715 23.95 26.5605 24.0391C26.6496 24.1281 26.6992 24.249 26.6992 24.375C26.6992 24.501 26.6496 24.6219 26.5605 24.7109C26.4715 24.8 26.3506 24.8496 26.2246 24.8496H24.4746C24.3486 24.8496 24.2278 24.8 24.1387 24.7109C24.0496 24.6219 24 24.501 24 24.375C24 24.249 24.0496 24.1281 24.1387 24.0391C24.2277 23.95 24.3486 23.9004 24.4746 23.9004H26.2246ZM15.7246 19.5254C15.8506 19.5254 15.9715 19.575 16.0605 19.6641C16.1496 19.7531 16.1992 19.874 16.1992 20C16.1992 20.126 16.1496 20.2469 16.0605 20.3359C15.9715 20.425 15.8506 20.4746 15.7246 20.4746H13.9746C13.8486 20.4746 13.7278 20.425 13.6387 20.3359C13.5496 20.2469 13.5 20.126 13.5 20C13.5 19.874 13.5496 19.7531 13.6387 19.6641C13.7278 19.575 13.8486 19.5254 13.9746 19.5254H15.7246ZM20.9746 19.5254C21.1006 19.5254 21.2215 19.575 21.3105 19.6641C21.3996 19.7531 21.4492 19.874 21.4492 20C21.4492 20.126 21.3996 20.2469 21.3105 20.3359C21.2215 20.425 21.1006 20.4746 20.9746 20.4746H19.2246C19.0986 20.4746 18.9778 20.425 18.8887 20.3359C18.7996 20.2469 18.75 20.126 18.75 20C18.75 19.874 18.7996 19.7531 18.8887 19.6641C18.9778 19.575 19.0986 19.5254 19.2246 19.5254H20.9746ZM26.2246 19.5254C26.3506 19.5254 26.4715 19.575 26.5605 19.6641C26.6496 19.7531 26.6992 19.874 26.6992 20C26.6992 20.126 26.6496 20.2469 26.5605 20.3359C26.4715 20.425 26.3506 20.4746 26.2246 20.4746H24.4746C24.3486 20.4746 24.2278 20.425 24.1387 20.3359C24.0496 20.2469 24 20.126 24 20C24 19.874 24.0496 19.7531 24.1387 19.6641C24.2278 19.575 24.3486 19.5254 24.4746 19.5254H26.2246ZM15.7246 3.84961C15.3865 3.84961 15.0624 3.98452 14.8232 4.22363C14.5841 4.46274 14.4492 4.78685 14.4492 5.125V13.875C14.4492 14.2131 14.5841 14.5373 14.8232 14.7764C15.0624 15.0155 15.3865 15.1504 15.7246 15.1504H24.4746C24.8128 15.1504 25.1369 15.0155 25.376 14.7764C25.6151 14.5373 25.75 14.2131 25.75 13.875V5.125C25.75 4.78685 25.6151 4.46274 25.376 4.22363C25.1369 3.98452 24.8128 3.84961 24.4746 3.84961H15.7246ZM20.0996 6.40039C20.2256 6.40039 20.3465 6.44998 20.4355 6.53906C20.5246 6.62814 20.5742 6.74902 20.5742 6.875V9.02539H22.7246C22.8506 9.02539 22.9715 9.07498 23.0605 9.16406C23.1496 9.25314 23.1992 9.37402 23.1992 9.5C23.1992 9.62598 23.1496 9.74686 23.0605 9.83594C22.9715 9.92502 22.8506 9.97461 22.7246 9.97461H20.5742V12.125C20.5742 12.251 20.5246 12.3719 20.4355 12.4609C20.3465 12.55 20.2256 12.5996 20.0996 12.5996C19.9736 12.5996 19.8528 12.55 19.7637 12.4609C19.6746 12.3719 19.625 12.251 19.625 12.125V9.97461H17.4746C17.3486 9.97461 17.2278 9.92502 17.1387 9.83594C17.0496 9.74686 17 9.62598 17 9.5C17 9.37402 17.0496 9.25314 17.1387 9.16406C17.2278 9.07498 17.3486 9.02539 17.4746 9.02539H19.625V6.875C19.625 6.74902 19.6746 6.62814 19.7637 6.53906C19.8528 6.44998 19.9736 6.40039 20.0996 6.40039Z" fill="#0B20B5"/>
</svg>
