<svg width="40" height="40" viewBox="0 0 40 40" fill="none" xmlns="http://www.w3.org/2000/svg">
<path d="M15.1277 30.6573C15.3655 30.64 15.6601 30.7756 15.6659 31.0615L15.6935 32.5483L16.9816 32.5526C17.3472 32.5538 17.5838 32.7948 17.5699 33.1242C17.5558 33.4538 17.2791 33.6401 16.922 33.6395L15.6901 33.6369L15.6875 34.9956H15.6858C15.6851 35.3604 15.4146 35.5655 15.1243 35.5501C14.791 35.5321 14.6207 35.2494 14.6206 34.8982L14.6215 33.6412L13.1606 33.6104C12.8604 33.6042 12.7601 33.3176 12.765 33.0687C12.7705 32.7987 12.9403 32.5651 13.2522 32.562L14.6154 32.5474L14.6353 31.1247C14.6396 30.8441 14.8898 30.6747 15.1277 30.6573Z" fill="#0B20B5"/>
<path fill-rule="evenodd" clip-rule="evenodd" d="M17.6848 3.0417C19.7199 2.04799 22.0511 2.45332 23.7078 3.99617C25.2457 5.42934 26.033 7.49214 26.093 9.6273C26.614 10.1245 26.8833 10.7919 26.7426 11.5063C26.6367 12.1747 26.191 12.753 25.5081 13.0026C24.918 14.3978 24.0874 15.5236 22.8223 16.3163C23.3947 16.7129 23.9715 16.934 24.5457 17.2263L25.6584 17.7929C28.8187 17.899 31.4045 20.448 31.4896 23.6675L31.5 28.4732C31.5 28.7172 31.2574 28.9071 31.0465 28.909L29.1451 28.9252C29.0705 29.8687 28.7619 30.7507 28.1015 31.4229L22.2694 37.3608C22.0823 37.5514 21.7175 37.5343 21.5671 37.3822L19.1188 34.9127C18.2413 36.7959 16.3265 37.7801 14.3563 37.4215C12.482 37.0801 10.997 35.4643 10.8446 33.4694C10.6899 31.4484 11.8144 29.6732 13.679 28.9457L8.97082 28.9193C8.73851 28.918 8.49894 28.7728 8.5 28.4912L8.51469 23.6034C8.63149 20.4272 11.1886 17.9325 14.2958 17.8014L15.5847 17.1622C16.1528 16.8804 16.6756 16.6768 17.2028 16.2975C15.8641 15.5632 15.1967 14.3149 14.4807 13.0735C13.9775 12.6589 13.3869 12.2944 13.2479 11.561C13.1036 10.8019 13.4826 10.1689 13.8777 9.61277C14.0354 8.03119 14.3695 6.50186 15.2893 5.18221C15.9228 4.27354 16.6936 3.52525 17.6848 3.0417ZM15.1623 29.7857C13.3602 29.7857 11.8996 31.2678 11.8994 33.0969C11.8994 34.9262 13.3601 36.4089 15.1623 36.4089C16.9643 36.4087 18.4243 34.926 18.4243 33.0969C18.4241 31.2685 16.9642 29.7859 15.1623 29.7857ZM21.2172 31.1965C21.1151 31.4242 20.9948 31.6571 20.7118 31.6622L19.2605 31.6878C19.5069 32.3686 19.5236 32.9854 19.4558 33.6779L21.9049 36.162L26.0679 31.9459C25.8674 31.8404 25.7032 31.7944 25.6377 31.6178L25.2092 30.4582L24.8075 31.4887C24.7262 31.6972 24.6145 31.8749 24.3609 31.8775L22.4863 31.8963C22.1897 31.8994 21.9627 31.7711 21.8746 31.4862L21.5541 30.4471L21.2172 31.1965ZM20.3922 26.5369C19.0664 25.3576 17.0952 25.6639 16.1376 27.1598C15.849 27.6111 15.6868 28.1258 15.6789 28.7167C16.9538 28.8943 18.0028 29.547 18.7292 30.5872L20.2911 30.5787L21.2043 28.5621C21.2917 28.3699 21.4888 28.3135 21.663 28.316C21.8226 28.3178 22.0678 28.347 22.1277 28.545L22.8059 30.7863H23.916L24.8006 28.4664C25.0905 28.2324 25.477 28.2656 25.6947 28.5288L26.4765 30.7778C26.7126 30.8076 27.0107 30.8653 27.2126 30.7641C28.4171 29.6233 28.338 27.7135 27.1806 26.6198C26.0016 25.5069 24.1787 25.5963 23.1005 26.83L22.4016 27.5563C22.2041 27.7612 21.8266 27.9538 21.5973 27.7272L20.3922 26.5369ZM14.6474 19.0122C14.4626 18.8535 14.0486 18.8086 13.9165 18.996C13.8317 19.4316 13.8957 19.8679 13.8975 20.3264C14.7971 20.5735 15.4312 21.2879 15.4301 22.232L15.4283 24.0922C15.428 24.5759 14.8047 24.5935 14.1567 24.5271C13.84 24.4949 13.7111 24.1739 13.7533 23.8871C13.7955 23.6004 14.0207 23.4388 14.3709 23.4436L14.3666 22.2354C14.3642 21.6749 13.8341 21.3594 13.3118 21.3681C12.7817 21.3768 12.308 21.7378 12.3123 22.2995L12.321 23.4317C12.6829 23.4435 12.9352 23.6385 12.9628 23.9581C12.9879 24.2497 12.7727 24.5522 12.4194 24.5468L11.7016 24.5365C11.4331 24.5328 11.2478 24.3064 11.2471 24.0332L11.2446 22.3576C11.2427 21.3768 11.8458 20.5859 12.7754 20.3333C12.8286 19.9454 12.8414 19.6118 12.765 19.2139C10.8785 19.9731 9.62722 21.7303 9.55567 23.7854V27.852L14.7139 27.8434C15.1836 25.6387 17.2806 24.3533 19.454 24.8288L19.4679 21.2886L14.6474 19.0122ZM26.0653 20.699C26.9544 20.9938 27.4258 21.8737 27.2609 22.7712C27.1032 23.6302 26.3484 24.2399 25.458 24.2144C24.6167 24.19 23.8866 23.5559 23.7674 22.6609C23.6549 21.8162 24.1376 20.9775 24.995 20.687L24.9604 19.1737L20.5278 21.286L20.5235 25.2697C21.0561 25.5993 21.4178 26.0473 21.885 26.4942L22.615 25.7704C23.6968 24.809 25.1394 24.4812 26.5612 24.9809C27.7652 25.4043 28.7587 26.4634 29.0595 27.8426L30.4495 27.8289L30.4435 23.8444C30.439 21.3295 28.5467 19.2531 26.0696 18.9054L26.0653 20.699ZM25.5263 21.7116C25.1423 21.7116 24.831 22.0277 24.8308 22.4174C24.8308 22.8072 25.1422 23.1232 25.5263 23.1232C25.9103 23.1232 26.2217 22.8072 26.2217 22.4174C26.2215 22.0277 25.9102 21.7116 25.5263 21.7116ZM18.318 16.841C17.9261 17.1842 17.5177 17.4371 17.0628 17.6587L15.7333 18.3056L20.0017 20.3247L24.2304 18.3133L22.9899 17.6801C22.5221 17.4597 22.1087 17.1907 21.6837 16.8623C20.5818 17.2229 19.4309 17.2357 18.318 16.841ZM21.0185 7.28342C19.1003 8.03565 17.1367 8.45594 15.1035 8.48826C15.0032 8.99903 14.9677 9.45867 14.986 9.93406C14.9964 10.2009 14.8377 10.3474 14.6379 10.4826C14.3376 10.6856 14.221 11.0689 14.3476 11.4388C14.4296 11.6772 14.6996 11.9646 15.0145 12.0105C15.2157 12.0403 15.3524 12.1404 15.4197 12.3284C15.8221 13.4494 16.4909 14.4262 17.4161 15.1388C18.9786 16.3424 20.9911 16.3509 22.564 15.1679C23.4862 14.4745 24.1597 13.5394 24.5725 12.4078L24.5734 12.4087C24.6627 12.1641 24.7698 12.0521 24.9967 12.0105C25.3746 11.9409 25.6442 11.6062 25.6956 11.2748C25.7541 10.8963 25.5533 10.5764 25.236 10.3716C25.1592 10.3218 25.095 10.2043 24.9855 10.1836C23.3405 9.87633 21.097 9.21929 21.0185 7.28342ZM22.1934 4.21663C20.6725 3.26821 18.8394 3.39652 17.4127 4.48836C16.5009 5.2115 15.7813 6.17283 15.4119 7.3851C17.6379 7.32924 19.7281 6.72053 21.6716 5.78634C21.9333 5.66037 22.1955 5.77826 22.3325 5.97433C22.4695 6.17048 22.4366 6.44733 22.2997 6.64596C21.9721 7.12189 22.0571 7.70991 22.5148 8.08664C22.9581 8.45101 23.4453 8.66276 23.9713 8.8198C24.2959 8.91663 24.5787 9.05528 24.9889 9.01804C24.7584 7.05968 23.8396 5.2433 22.1934 4.21663Z" fill="#0B20B5"/>
</svg>
