<svg width="40" height="40" viewBox="0 0 40 40" fill="none" xmlns="http://www.w3.org/2000/svg">
<path d="M31.8105 30.0456C31.8105 30.0456 32.1554 29.4722 31.983 29.2428C31.8105 29.0134 31.4082 28.8987 31.1783 29.0708C28.4771 30.963 25.2587 31.9952 21.9253 31.9952C12.9596 31.9952 5.71806 24.7128 5.71806 15.8248C5.71806 12.499 6.69506 9.28785 8.64913 6.59279C8.82154 6.30608 8.76408 5.96203 8.47672 5.79C8.18935 5.61798 7.84452 5.67532 7.6721 5.96203C5.60309 8.88646 4.56863 12.327 4.56863 15.8822C4.56863 24.5408 10.9481 31.7658 19.2816 33.0273V36.3532H12.4998C12.1549 36.3532 11.9251 36.6399 11.9251 36.9266C11.9251 37.2133 12.2124 37.5 12.4998 37.5H31.4083C31.7531 37.5 31.983 37.2133 31.983 36.9266C31.983 36.6399 31.6956 36.3532 31.4083 36.3532H24.6265V33.0273C27.2127 32.626 29.6841 31.6511 31.8681 30.1029L31.8105 30.0456ZM23.3621 36.2958H20.3736V33.0847C20.8908 33.0847 21.3506 33.142 21.8678 33.142C22.3851 33.142 22.9023 33.142 23.3621 33.0847V36.2958Z" fill="#0B20B5"/>
<path d="M22.8448 8.59988C22.5574 8.4852 22.2701 8.59988 22.2126 8.88659C22.0976 9.1733 22.2126 9.46001 22.5 9.51735C22.5 9.51735 22.6149 9.51735 22.6724 9.51735C22.9023 9.51735 23.0747 9.40267 23.1322 9.1733C23.2471 8.88659 23.1321 8.59988 22.8448 8.54254V8.59988Z" fill="#0B20B5"/>
<path d="M28.0749 24.2541H28.1898C28.7071 24.1967 29.1094 23.6233 29.4542 22.5338L30.0864 20.4695C30.0864 20.4695 30.0864 20.2975 30.0864 20.1828L29.8565 19.2653C29.8565 19.2653 29.6266 18.9213 29.3967 18.864C29.1668 18.864 28.9944 18.9213 28.8795 19.1507C28.8795 19.2653 28.7645 19.38 28.7071 19.4947C28.6496 19.6667 28.5347 19.8388 28.4772 19.9534C28.4772 20.0108 28.3048 20.0681 28.1898 20.1255C27.9025 20.2402 27.5001 20.4695 27.3277 20.9856C27.2127 21.2723 27.2702 21.559 27.3277 21.731C27.3277 21.9031 27.3277 21.9604 27.3277 22.0178C27.1553 22.4191 26.8679 23.1072 27.3277 23.738C27.615 24.1967 27.9599 24.3114 28.1898 24.3114L28.0749 24.2541ZM28.1898 22.3618C28.3622 21.9604 28.3047 21.6737 28.2473 21.5017C28.2473 21.387 28.2473 21.3297 28.2473 21.215C28.2473 21.1576 28.3622 21.1003 28.5921 20.9856C28.6496 20.9856 28.7645 20.9283 28.8795 20.8709L28.4772 22.1898C28.3048 22.7632 28.1898 22.9926 28.0749 23.1072C27.9599 22.9926 28.0748 22.6485 28.2473 22.4191L28.1898 22.3618Z" fill="#0B20B5"/>
<path d="M11.178 22.9352C11.178 22.9352 11.2355 23.0499 11.2929 23.1072C11.2929 23.1072 11.2929 23.1645 11.3504 23.2219C11.3504 23.2219 11.4079 23.3366 11.4653 23.3366C11.4653 23.3366 11.5228 23.3939 11.5803 23.4512C11.5803 23.4512 11.5803 23.5086 11.6952 23.5659C11.6952 23.5659 11.7527 23.6806 11.8102 23.6806C11.8102 23.6806 11.8101 23.738 11.8676 23.7953C11.8676 23.7953 11.9251 23.91 11.9826 23.91C11.9826 23.91 12.0401 23.9673 12.0975 24.0247C12.0975 24.0247 12.155 24.082 12.2125 24.1393C12.2125 24.1393 12.2699 24.1967 12.3274 24.254C12.3274 24.254 12.3849 24.3114 12.4424 24.3687C12.4424 24.3687 12.4999 24.4261 12.5573 24.4834C12.5573 24.4834 12.5573 24.5407 12.6148 24.5981L12.7297 24.7128C15.1436 27.1785 18.477 28.7267 22.2127 28.7267C29.5117 28.7267 35.4314 22.8205 35.4314 15.5381C35.4314 12.4416 34.3394 9.57454 32.5577 7.33821C32.5577 7.33821 32.5003 7.28087 32.4428 7.22353C32.4428 7.22353 32.4428 7.22353 32.3853 7.16619C31.0635 5.56062 29.3393 4.24176 27.3853 3.43897C27.3853 3.43897 27.3278 3.43897 27.2703 3.43897C27.2703 3.43897 27.1554 3.43897 27.0979 3.38163C27.0404 3.38163 26.9254 3.32429 26.8679 3.26695C26.2932 3.03758 25.6611 2.86555 25.0289 2.69353C24.9714 2.69353 24.8564 2.69353 24.7989 2.69353C24.7989 2.69353 24.684 2.69353 24.6265 2.69353C24.6265 2.69353 24.5691 2.69353 24.5116 2.69353C21.4656 2.17745 18.3621 2.69353 15.6034 4.24176C12.5573 6.01935 10.3733 8.8291 9.45377 12.2123C8.70663 15.0794 8.87908 18.0611 10.0285 20.7562C10.3734 21.5016 10.7757 22.2471 11.178 22.9352ZM14.339 22.4764L13.9366 24.5981C11.9251 22.7631 10.5458 20.2401 10.086 17.4304L11.3504 17.029L13.4769 18.6345C13.4769 18.6345 13.5918 18.6919 13.7068 18.7492L14.9712 18.9786C14.9712 18.9786 15.2585 19.0933 15.3734 19.2653C15.4309 19.38 15.4884 19.552 15.3734 19.724C15.2585 20.0681 15.2585 20.4121 15.3734 20.6988L15.5459 21.2149C15.6609 21.5016 15.4884 21.8457 15.201 21.9604L14.6838 22.1324C14.6838 22.1324 14.3964 22.3618 14.339 22.5338V22.4764ZM13.8217 6.87948C14.1666 6.99416 14.4539 7.28087 14.6264 7.62492C14.7988 8.02631 14.6838 8.48505 14.3964 8.8291L13.7642 9.45986C13.7642 9.45986 13.7642 9.5172 13.7068 9.57454L12.3274 11.9829L11.1205 12.843C11.1205 12.843 10.8331 13.3018 11.0056 13.5311L11.4653 14.2192C11.4653 14.2192 10.9481 14.2766 10.8331 14.3339C10.8331 14.3339 10.7756 14.2766 10.7182 14.2192C10.6032 14.1045 10.4308 13.9325 10.2009 13.7605C10.6033 11.0654 11.9251 8.65707 13.8217 6.87948ZM10.0285 15.022C10.0285 15.022 10.086 15.022 10.1435 15.0793C10.1435 15.0793 10.2009 15.1367 10.2584 15.194C10.3733 15.3087 10.4883 15.3087 10.6607 15.3087C10.8332 15.3087 11.1205 15.3087 11.5803 15.194C11.8677 15.194 12.155 15.0793 12.4424 15.0793C12.7297 15.0793 12.9022 14.7926 12.8447 14.5059C12.8447 14.4486 12.8447 14.3912 12.7872 14.2766L12.155 13.3591L13.0746 12.7283C13.0746 12.7283 13.1895 12.6137 13.247 12.5563L14.6264 10.0906L15.201 9.45986C15.7758 8.8291 15.9482 7.91163 15.6034 7.16619C15.431 6.70745 15.0861 6.3634 14.6838 6.07669C16.6953 4.47112 19.2816 3.49631 22.0403 3.49631L21.1207 4.64315L17.7298 5.84733C17.7298 5.84733 17.4999 6.01935 17.4424 6.13403L16.4654 8.42771C16.4654 8.42771 16.4654 8.77176 16.4654 8.94378L17.8448 10.8934C17.8448 10.8934 17.4425 11.3521 17.2126 11.6388C17.0977 11.8109 17.0402 11.9256 16.9252 11.9829C16.9252 12.0402 16.8103 12.0976 16.7528 12.1549C16.4654 12.499 16.1206 12.843 15.9482 13.3018C15.4884 14.3339 15.5459 15.5381 16.178 16.3982C16.8102 17.2583 17.8448 17.7171 18.9368 17.545C19.1092 17.545 19.2816 17.4877 19.454 17.4304C19.9138 17.3157 20.0288 17.3157 20.2012 17.4304C20.2587 17.4877 20.2586 17.4877 20.2586 17.7171C20.2586 17.8318 20.2586 18.0038 20.2586 18.2331C20.3161 18.5772 20.546 18.7492 20.7184 18.9212C20.7759 19.0359 20.8908 19.0933 20.8908 19.1506C21.0633 19.552 21.0058 19.724 20.8334 20.2401C20.8334 20.2401 20.8334 20.2974 20.8334 20.3548C20.6035 21.1002 20.9483 21.7883 21.2357 22.4191C21.3506 22.6485 21.4081 22.8205 21.4656 22.9925C21.9254 24.3687 22.2701 24.6554 22.5575 24.8274C22.7299 24.8848 22.8449 24.9421 23.0173 24.9421C23.7644 24.9421 24.5116 24.254 24.9139 23.7953C25.1438 23.5086 25.2012 23.2219 25.2587 23.0499C25.2587 22.9352 25.2588 22.8778 25.3162 22.8205C25.3162 22.7631 25.4312 22.7058 25.4887 22.5911C25.6036 22.4191 25.776 22.2471 25.8909 21.903C25.9484 21.6163 26.0633 21.559 26.2357 21.3296C26.2357 21.3296 26.2932 21.2723 26.3507 21.2149C27.0404 20.4695 26.8679 19.8961 26.6955 19.3226C26.5231 18.8066 26.8105 18.4625 27.5001 17.8891C27.7875 17.6024 28.0749 17.3157 28.3048 17.029C28.4197 16.8569 28.7071 16.4556 28.5347 15.9968C28.3623 15.5381 27.9024 15.4807 27.5001 15.4234C27.3277 15.4234 27.0979 15.3661 27.0404 15.3087C26.6956 15.0793 26.5231 14.678 26.3507 14.2192C26.3507 14.1619 26.2932 14.0472 26.2357 13.9899C26.1783 13.8752 26.1208 13.6458 26.0059 13.4738C25.8335 13.015 25.6035 12.4416 25.2587 12.0402C24.9139 11.6962 24.3392 11.5242 23.7645 11.4095C23.592 11.4095 23.4196 11.2948 23.3047 11.2948C23.1897 11.2948 23.1322 11.2948 23.0173 11.2948C22.7299 11.3521 22.615 11.4095 22.4426 11.5242C22.4426 11.5242 22.3277 11.6388 22.2702 11.7535C22.0978 11.6388 21.8104 11.4668 21.638 11.4095C21.638 11.4095 21.638 11.0081 21.638 10.8934C21.3506 10.2626 20.3736 10.32 20.2012 10.3773C20.0862 10.3773 19.9713 10.3773 19.7988 10.3773C19.569 10.3773 19.339 10.3773 19.0517 10.3773C19.2241 9.80391 19.7414 9.45986 20.3161 9.45986H20.6035C20.6035 9.45986 21.1207 9.23049 21.1207 8.94378C21.1207 8.65707 20.8908 8.42771 20.6035 8.42771H20.3161C19.5115 8.42771 18.7644 8.88644 18.3046 9.5172L17.5574 8.42771L18.3046 6.59277L21.638 5.44593C21.638 5.44593 21.8104 5.33125 21.8679 5.27391L23.3621 3.43897C28.4197 3.89771 32.5578 7.4529 33.9371 12.1549V12.2696C33.9371 12.2696 33.9371 12.3269 33.9371 12.3843L33.7072 12.5563C33.7072 12.5563 33.2474 13.1871 33.2474 13.5311L32.9026 12.5563C32.9026 12.5563 32.7877 12.2696 32.6727 12.1549L32.0405 11.4095C31.8106 11.1228 31.4083 10.9507 31.0635 10.9507H30.2589C30.2589 10.9507 29.7416 11.1228 29.6267 11.3521C29.5117 11.5815 29.5117 11.8682 29.6267 12.0976V12.2123C29.2244 12.671 28.6497 13.015 28.0175 13.2444L26.9255 11.1801V10.7214C26.9255 10.7214 26.868 10.4347 26.7531 10.3773L25.776 9.45986C25.776 9.45986 25.6611 9.34517 25.6036 9.34517L24.7415 9.05847C24.7415 9.05847 24.1668 9.05846 24.1093 9.34517C23.9943 9.63188 24.1093 9.91859 24.3967 9.97593L25.1438 10.2626L25.8909 10.9507V11.2948C25.8909 11.2948 25.891 11.4668 25.9484 11.5242L27.2703 14.0472C27.2703 14.0472 27.6726 14.3912 27.9025 14.2766L28.3048 14.1619C29.2243 13.8178 30.029 13.3018 30.7187 12.6137C30.8911 12.4416 30.8911 12.1549 30.7761 11.9829H31.006C31.0634 11.9829 31.1784 11.9829 31.1784 12.0976L31.8106 12.843C31.8106 12.843 31.8106 12.843 31.8106 12.9004L32.5003 14.85C32.5003 14.85 32.9026 15.2514 33.1325 15.1367C33.19 15.1367 33.2474 15.0793 33.3049 15.022L33.6497 14.678C33.6497 14.678 33.9945 14.2192 34.052 13.9325C34.3968 16.7423 33.7647 19.6667 32.2129 22.0177C32.2129 22.075 32.1554 22.1324 32.098 22.1897C29.914 25.4009 26.2358 27.5225 22.0403 27.5225C19.3391 27.5225 16.8102 26.605 14.7412 25.1142L15.201 22.7631H15.431C16.2931 22.4191 16.7528 21.5016 16.4654 20.6988L16.293 20.1828C16.293 20.1828 16.293 19.9534 16.293 19.8387C16.408 19.38 16.4079 18.9212 16.178 18.5199C15.9482 18.1185 15.5459 17.8318 15.0861 17.7744L13.9366 17.545L11.6952 15.8248C11.6952 15.8248 11.4079 15.7101 11.2355 15.7675L9.91357 16.1688C9.91357 16.1688 9.91357 15.7101 9.91357 15.4234C9.91357 15.194 9.91357 14.9647 9.91357 14.7926L10.0285 15.022ZM20.6035 12.0976C20.6035 12.0976 20.8334 12.2123 21.0058 12.3269C21.4081 12.6137 21.8679 12.9004 22.2702 12.9004C22.6725 12.9004 22.9024 12.7283 22.9599 12.6137C22.9599 12.6137 23.0748 12.499 23.0748 12.4416C23.1323 12.4416 23.2472 12.4416 23.3047 12.499C23.592 12.5563 24.1667 12.7283 24.2817 12.843C24.5116 13.0724 24.684 13.5311 24.8565 13.9325C24.9139 14.1045 25.0288 14.3339 25.0863 14.5059C25.0863 14.5633 25.1438 14.678 25.2013 14.7353C25.4312 15.2514 25.7185 15.8821 26.2933 16.2262C26.5806 16.3982 26.868 16.4556 27.1553 16.5129C27.1553 16.5129 27.2128 16.5129 27.2703 16.5129C27.0979 16.7423 26.868 16.9716 26.6381 17.201C26.0059 17.7744 25.2013 18.5199 25.5461 19.724C25.7185 20.2974 25.7185 20.3548 25.4311 20.6415C25.4311 20.6415 25.3737 20.6988 25.3162 20.7562C25.0864 20.9856 24.9139 21.2149 24.7415 21.6737C24.7415 21.7883 24.6266 21.903 24.5116 22.0177C24.4542 22.1324 24.3392 22.2471 24.2243 22.4191C24.1093 22.5911 24.0518 22.8205 24.0518 22.9925C24.0518 23.1645 24.0518 23.2219 23.9369 23.2792C23.8219 23.4512 23.5346 23.6806 23.3047 23.8526C23.0748 24.0247 22.9024 24.0247 22.8449 24.0247C22.8449 23.9673 22.615 23.6806 22.2702 22.8205C22.2127 22.5911 22.0978 22.3618 21.9828 22.1324C21.7529 21.6737 21.5231 21.1576 21.638 20.8135C21.638 20.8135 21.638 20.7562 21.638 20.6988C21.8104 20.1828 21.9828 19.6667 21.638 18.9212C21.5231 18.6919 21.4081 18.5199 21.2357 18.4052C21.1782 18.2905 21.0632 18.2331 21.0632 18.1185C21.0632 18.0611 21.0632 17.9464 21.0632 17.8318C21.0632 17.545 21.0633 17.1437 20.661 16.7996C20.0863 16.2835 19.454 16.4556 18.9942 16.5129C18.8793 16.5129 18.7069 16.5702 18.592 16.5702C17.8448 16.6276 17.2126 16.3982 16.8102 15.8248C16.4079 15.2514 16.3505 14.4486 16.6378 13.7605C16.8103 13.4164 17.0402 13.1871 17.3276 12.843C17.385 12.7857 17.4425 12.7283 17.5 12.6137C17.6149 12.499 17.7299 12.3269 17.8448 12.1549C17.9597 11.9829 18.2471 11.5815 18.362 11.5242C18.5919 11.4095 19.1092 11.3521 19.5115 11.3521C19.6839 11.3521 19.7988 11.3521 19.9713 11.3521C20.0287 11.3521 20.1437 11.3521 20.2012 11.3521C20.0862 11.5815 20.2012 11.8682 20.431 11.9829L20.6035 12.0976Z" fill="#0B20B5"/>
</svg>
