<svg width="40" height="40" viewBox="0 0 40 40" fill="none" xmlns="http://www.w3.org/2000/svg">
<path d="M26.7197 3.25C29.3947 3.25 31.5469 5.38128 31.5469 7.96875V22.4609C31.5469 22.7879 31.2729 23.0779 30.9033 23.0781C30.5335 23.0781 30.2588 22.788 30.2588 22.4609V7.96875C30.2588 6.03304 28.6576 4.48438 26.7197 4.48438H9.57715C7.63938 4.48447 6.03906 6.0331 6.03906 7.96875V32.0312C6.03906 33.9669 7.63938 35.5155 9.57715 35.5156H17.5947C17.9646 35.5156 18.2393 35.8057 18.2393 36.1328C18.2393 36.4599 17.9646 36.75 17.5947 36.75H9.57715C6.90207 36.7499 4.75 34.6187 4.75 32.0312V7.96875C4.75 5.38132 6.90207 3.2501 9.57715 3.25H26.7197ZM34.0771 25.5254C34.2819 25.2451 34.6914 25.1738 34.9863 25.3809C35.2369 25.5567 35.3136 25.8691 35.1963 26.126L35.1338 26.2324L28.2334 35.6836C28.2279 35.6911 28.2205 35.7007 28.2129 35.71L28.2119 35.7109C27.7495 36.2753 27.0716 36.644 26.335 36.7305L26.1865 36.7441C26.1225 36.7482 26.0599 36.75 25.999 36.75C25.2701 36.75 24.5634 36.4734 24.0371 35.9824L19.5859 31.792V31.791C19.3362 31.5558 19.3285 31.174 19.5674 30.9297C19.8147 30.6772 20.2309 30.6679 20.4893 30.9111L24.9385 35.1006L24.9404 35.1025C25.3679 35.5016 25.8625 35.5275 26.0977 35.5127H26.0996C26.3326 35.4974 26.7936 35.4102 27.1621 34.9912L27.1846 34.9658L27.2051 34.9385L34.0771 25.5254ZM19.6865 22.3906C20.0563 22.3908 20.3311 22.6808 20.3311 23.0078C20.3311 23.3348 20.0563 23.6248 19.6865 23.625H10.9639C10.5941 23.6249 10.3193 23.3349 10.3193 23.0078C10.3193 22.6808 10.5941 22.3907 10.9639 22.3906H19.6865ZM25.3252 16.9219C25.695 16.9219 25.9697 17.212 25.9697 17.5391C25.9697 17.8661 25.695 18.1562 25.3252 18.1562H10.9639C10.5941 18.1562 10.3193 17.8661 10.3193 17.5391C10.3193 17.212 10.5941 16.9219 10.9639 16.9219H25.3252ZM25.3252 11.4531C25.695 11.4531 25.9697 11.7433 25.9697 12.0703C25.9697 12.3974 25.695 12.6875 25.3252 12.6875H10.9639C10.5941 12.6874 10.3193 12.3974 10.3193 12.0703C10.3193 11.7433 10.5941 11.4532 10.9639 11.4531H25.3252Z" fill="#0B20B5"/>
</svg>
