<svg width="40" height="40" viewBox="0 0 40 40" fill="none" xmlns="http://www.w3.org/2000/svg">
<path d="M20.0283 3C25.271 3.0002 29.5361 7.41467 29.5361 12.8447V20.0859C29.5361 21.3343 29.0289 22.5317 28.2246 23.3584L27.8682 23.7246H27.4043L27.7324 23.8633L27.6963 23.9014L29.1045 24.4434L29.6738 24.6846C31.3885 25.4103 32.5 27.067 32.5 28.9941V36.4658C32.4998 36.7773 32.2632 37 31.9932 37H8.00684C7.73678 37 7.50015 36.7773 7.5 36.4658V28.9941C7.50004 27.067 8.61149 25.4103 10.3262 24.6846L10.3252 24.6836L11.6533 24.1738L12.3594 23.9014L11.8311 23.3584C11.0269 22.5317 10.5195 21.3343 10.5195 20.0859V12.8447C10.5196 7.41454 14.7854 3 20.0283 3ZM20.6152 28.4922L20.6084 28.502L20.6025 28.5127C20.5353 28.6275 20.378 28.7217 20.2012 28.7236C20.1946 28.722 20.1719 28.716 20.1309 28.6973C20.0718 28.6703 20.0035 28.6299 19.9336 28.582C19.8651 28.5351 19.8034 28.4869 19.7588 28.4502C19.751 28.4438 19.7438 28.4371 19.7373 28.4316L16.4258 23.3262L14.9863 23.8711L14.6631 23.9941V27.6689L14.9814 27.793C15.9724 28.1811 16.6768 29.1517 16.6768 30.2588C16.6767 31.7197 15.5455 32.8622 14.1572 32.8623C12.7689 32.8623 11.6378 31.7197 11.6377 30.2588C11.6377 29.0846 12.3485 28.1311 13.3125 27.8008L13.6504 27.6846V24.459L10.8379 25.5996C9.46054 26.1416 8.6251 27.4849 8.625 28.9365V35.9307H31.7666V28.9365C31.7665 27.4712 30.8629 26.138 29.5557 25.6006L29.5537 25.5996L26.7412 24.459V27.6689L27.0586 27.793C28.0496 28.181 28.7539 29.1517 28.7539 30.2588V32.3271C28.7539 32.6388 28.5172 32.8623 28.2471 32.8623C27.977 32.8622 27.7412 32.6387 27.7412 32.3271V30.2588C27.7412 29.421 27.0825 28.7246 26.2344 28.7246C25.3863 28.7246 24.7275 29.421 24.7275 30.2588V32.3271C24.7275 32.6387 24.4917 32.8622 24.2217 32.8623C23.9515 32.8623 23.7148 32.6388 23.7148 32.3271V30.2588C23.7148 29.0847 24.4258 28.1312 25.3896 27.8008L25.7275 27.6846V23.9941L25.4053 23.8711L23.9658 23.3262L20.6152 28.4922ZM14.1016 28.7812C13.2534 28.7812 12.5947 29.4786 12.5947 30.3164C12.5949 31.1541 13.2535 31.8506 14.1016 31.8506C14.9494 31.8503 15.6073 31.1539 15.6074 30.3164C15.6074 29.4787 14.9495 28.7815 14.1016 28.7812ZM21.0059 20.5127C20.7192 20.5618 20.4262 20.5635 20.084 20.5635C19.966 20.5635 19.8404 20.5427 19.665 20.5127C19.5049 20.4853 19.2946 20.4482 19.0771 20.4482H18.5771V22.04C18.5771 22.3117 18.4617 22.471 18.2607 22.5596L17.9619 22.6914V22.7314L17.835 22.7803L17.2578 23.0029L20.084 27.3213L22.9102 23.0029L22.333 22.7803L21.9053 22.6162C21.7186 22.5331 21.5898 22.3268 21.5898 22.0977V20.4131L21.0059 20.5127ZM20.084 3.9541C15.5384 3.9541 11.8531 7.60526 11.6035 12.2295H11.5322V19.9717C11.5324 21.2909 12.2371 22.5643 13.4248 23.1748L13.6289 23.2793L13.8418 23.1934L16.2461 22.2158L16.2529 22.2129L17.2031 21.8105L17.5088 21.6816V19.9189L17.2666 19.7725C15.7811 18.8773 14.7557 17.3546 14.5449 15.5088V11.6377C14.545 11.3262 14.7817 11.1035 15.0518 11.1035H16.0576C18.024 11.1035 19.5771 9.48724 19.5771 7.5C19.5771 7.18839 19.8138 6.96582 20.084 6.96582C20.3541 6.96588 20.5898 7.18844 20.5898 7.5C20.5898 9.48714 22.1431 11.1033 24.1094 11.1035H25.1162C25.3862 11.1036 25.6229 11.3262 25.623 11.6377V14.8564C25.623 16.969 24.4937 18.7669 22.8428 19.7744L22.6035 19.9209V21.6816L23.8584 22.2139L23.8652 22.2158L26.2695 23.1934L26.4824 23.2793L26.6865 23.1748C27.8744 22.5643 28.579 21.291 28.5791 19.9717V12.7295C28.5789 7.93097 24.7945 3.95417 20.084 3.9541ZM19.7402 10.3604C18.8751 11.5111 17.5639 12.2294 16.1143 12.2295H15.6143V15.4014L15.6172 15.4297C15.8042 17.0946 16.8059 18.4554 18.2549 19.1045C18.7612 19.3357 19.3131 19.462 19.8672 19.4883L19.9287 19.5518H20.1396C22.6696 19.5518 24.6659 17.4138 24.666 14.9141V12.2295H24.166C22.655 12.2295 21.3511 11.5074 20.5479 10.3721L20.1523 9.8125L19.7402 10.3604Z" fill="#0B20B5"/>
</svg>
