<svg width="123" height="32" viewBox="0 0 123 32" fill="none" xmlns="http://www.w3.org/2000/svg">
<path d="M67.7886 11.768L60.8225 0.620672C60.4308 0.00201688 59.613 -0.185686 58.9905 0.203128C58.369 0.591942 58.1784 1.40883 58.5634 2.03324L66.6624 14.9905C66.898 15.364 67.3126 15.6149 67.7867 15.6149C68.2607 15.6149 68.6735 15.3659 68.91 14.9943L77.011 2.03802C77.3959 1.41458 77.2054 0.59673 76.5838 0.208874C75.9623 -0.17994 75.1435 0.0077629 74.7518 0.626418L67.7886 11.7689V11.768Z" fill="#0B20B5"/>
<path d="M46.445 1.33308C46.445 0.596629 45.8483 0 45.1128 0H34.9951C32.7244 0 30.8838 1.84064 30.8838 4.11128V11.5016C30.8838 13.7723 32.7244 15.6129 34.9951 15.6129H45.1128C45.8493 15.6129 46.4459 15.0163 46.4459 14.2798C46.4459 13.5434 45.8493 12.9477 45.1128 12.9477H34.9951C34.1964 12.9477 33.549 12.3003 33.549 11.5016V9.00785H44.6072C45.3436 9.00785 45.9403 8.41122 45.9403 7.67477C45.9403 6.93832 45.3436 6.34265 44.6072 6.34265H33.549V4.11128C33.549 3.31258 34.1964 2.6652 34.9951 2.6652H45.1128C45.8493 2.6652 46.4459 2.06857 46.4459 1.33212" fill="#0B20B5"/>
<path d="M14.5834 10.1034H14.8525C17.1231 10.1034 18.9638 8.26278 18.9638 5.99214V4.11128C18.9638 1.84064 17.1231 0 14.8525 0H4.11127C1.84064 0 0 1.84064 0 4.11128V14.2808C0 15.0163 0.596628 15.6129 1.33308 15.6129C2.06952 15.6129 2.66519 15.0163 2.66519 14.2808V4.11128C2.66519 3.31258 3.31258 2.6652 4.11127 2.6652H14.8525C15.6512 2.6652 16.2986 3.31258 16.2986 4.11128V5.99214C16.2986 6.79084 15.6512 7.43823 14.8525 7.43823H11.6845C11.154 7.43823 10.724 7.86822 10.724 8.39877C10.724 8.56923 10.7709 8.72725 10.8485 8.86516L14.2051 14.9215C14.5623 15.565 15.3725 15.7977 16.017 15.4405C16.6606 15.0833 16.8933 14.2722 16.537 13.6286L14.5834 10.1025V10.1034Z" fill="#0B20B5"/>
<path d="M113.138 11.768L106.172 0.620672C105.78 0.00201688 104.962 -0.185686 104.34 0.203128C103.718 0.591942 103.528 1.40883 103.913 2.03324L112.012 14.9905C112.247 15.364 112.662 15.6149 113.136 15.6149C113.61 15.6149 114.023 15.3659 114.259 14.9943L122.359 2.03802C122.744 1.41458 122.554 0.59673 121.932 0.208874C121.311 -0.17994 120.492 0.0077629 120.1 0.626418L113.137 11.7689L113.138 11.768Z" fill="#0B20B5"/>
<path d="M89.1303 1.32542C89.1341 0.592798 89.7289 0 90.4624 0C91.196 0 91.7898 0.592798 91.7945 1.32542V14.2808C91.7945 15.0172 91.1989 15.6139 90.4624 15.6139C89.726 15.6139 89.1303 15.0172 89.1303 14.2808V1.32542Z" fill="#0B20B5"/>
<path d="M108.754 28.2523C108.754 28.7391 108.677 29.1821 108.523 29.5813C108.369 29.9805 108.151 30.3222 107.87 30.6064C107.589 30.8907 107.251 31.1114 106.858 31.2687C106.465 31.4229 106.03 31.5 105.552 31.5H103.121V25H105.552C106.03 25 106.465 25.0786 106.858 25.2359C107.251 25.3901 107.589 25.6108 107.87 25.8981C108.151 26.1824 108.369 26.5241 108.523 26.9232C108.677 27.3224 108.754 27.7654 108.754 28.2523ZM107.852 28.2523C107.852 27.8531 107.797 27.4963 107.688 27.1818C107.58 26.8673 107.425 26.6012 107.226 26.3835C107.026 26.1657 106.784 25.9994 106.5 25.8845C106.216 25.7696 105.9 25.7121 105.552 25.7121H104.005V30.7879H105.552C105.9 30.7879 106.216 30.7304 106.5 30.6155C106.784 30.5006 107.026 30.3358 107.226 30.1211C107.425 29.9033 107.58 29.6372 107.688 29.3227C107.797 29.0083 107.852 28.6514 107.852 28.2523Z" fill="black"/>
<path d="M97.1207 31.5H96.4403C96.3617 31.5 96.2982 31.4803 96.2498 31.441C96.2014 31.4017 96.1651 31.3518 96.1409 31.2913L95.5331 29.7219H92.6165L92.0087 31.2913C91.9875 31.3458 91.9512 31.3942 91.8998 31.4365C91.8484 31.4788 91.7849 31.5 91.7093 31.5H91.0289L93.628 25H94.5216L97.1207 31.5ZM92.8614 29.0869H95.2882L94.2676 26.4424C94.2011 26.2791 94.136 26.075 94.0725 25.8301C94.0393 25.9541 94.006 26.069 93.9728 26.1748C93.9425 26.2776 93.9123 26.3683 93.882 26.447L92.8614 29.0869Z" fill="black"/>
<path d="M80.4476 31.5V25H82.5206C82.9197 25 83.2629 25.0393 83.5502 25.1179C83.8405 25.1966 84.0779 25.3084 84.2624 25.4536C84.4498 25.5987 84.5874 25.7772 84.6751 25.9888C84.7658 26.1975 84.8112 26.4334 84.8112 26.6964C84.8112 26.8567 84.7855 27.0109 84.7341 27.1591C84.6857 27.3073 84.6101 27.4449 84.5073 27.5719C84.4075 27.6989 84.2805 27.8123 84.1263 27.9121C83.9751 28.0119 83.7967 28.0935 83.591 28.157C84.0658 28.2508 84.4241 28.4216 84.6661 28.6696C84.908 28.9175 85.0289 29.2441 85.0289 29.6493C85.0289 29.9245 84.9775 30.1755 84.8747 30.4023C84.7749 30.6291 84.6267 30.8241 84.4302 30.9874C84.2367 31.1507 83.9978 31.2777 83.7135 31.3685C83.4323 31.4562 83.1102 31.5 82.7473 31.5H80.4476ZM81.3276 28.538V30.8015H82.7337C82.9847 30.8015 83.1994 30.7727 83.3778 30.7153C83.5593 30.6578 83.7075 30.5777 83.8224 30.4749C83.9403 30.369 84.0265 30.2451 84.0809 30.1029C84.1353 29.9578 84.1626 29.799 84.1626 29.6267C84.1626 29.291 84.0431 29.0264 83.8042 28.8329C83.5684 28.6363 83.21 28.538 82.7292 28.538H81.3276ZM81.3276 27.9121H82.4888C82.7368 27.9121 82.9515 27.8849 83.1329 27.8304C83.3143 27.776 83.464 27.7004 83.582 27.6036C83.7029 27.5069 83.7921 27.3904 83.8496 27.2544C83.907 27.1153 83.9358 26.9641 83.9358 26.8008C83.9358 26.4197 83.8209 26.14 83.591 25.9616C83.3612 25.7832 83.0044 25.694 82.5206 25.694H81.3276V27.9121Z" fill="black"/>
<path d="M74.4477 31.5H73.7673C73.6886 31.5 73.6251 31.4803 73.5768 31.441C73.5284 31.4017 73.4921 31.3518 73.4679 31.2913L72.8601 29.7219H69.9435L69.3357 31.2913C69.3145 31.3458 69.2782 31.3942 69.2268 31.4365C69.1754 31.4788 69.1119 31.5 69.0363 31.5H68.3559L70.955 25H71.8486L74.4477 31.5ZM70.1884 29.0869H72.6151L71.5946 26.4424C71.528 26.2791 71.463 26.075 71.3995 25.8301C71.3662 25.9541 71.333 26.069 71.2997 26.1748C71.2695 26.2776 71.2392 26.3683 71.209 26.447L70.1884 29.0869Z" fill="black"/>
<path d="M58.4278 28.7875V31.5H57.5524V25H59.3894C59.8007 25 60.156 25.0423 60.4554 25.127C60.7547 25.2087 61.0012 25.3281 61.1947 25.4853C61.3913 25.6426 61.5364 25.8331 61.6302 26.0569C61.7239 26.2776 61.7708 26.5256 61.7708 26.8008C61.7708 27.0306 61.7345 27.2453 61.6619 27.4449C61.5894 27.6445 61.4835 27.8244 61.3444 27.9846C61.2083 28.1419 61.0405 28.2765 60.8409 28.3883C60.6444 28.5002 60.4206 28.5849 60.1696 28.6424C60.2785 28.7059 60.3752 28.7981 60.4599 28.9191L62.3559 31.5H61.5757C61.4155 31.5 61.2975 31.438 61.2219 31.314L59.5346 28.9916C59.4832 28.9191 59.4272 28.8676 59.3667 28.8374C59.3063 28.8041 59.2155 28.7875 59.0946 28.7875H58.4278ZM58.4278 28.1479H59.3486C59.6056 28.1479 59.8309 28.1177 60.0245 28.0572C60.221 27.9937 60.3843 27.906 60.5143 27.7941C60.6474 27.6792 60.7472 27.5431 60.8137 27.3859C60.8802 27.2287 60.9135 27.0548 60.9135 26.8643C60.9135 26.4772 60.785 26.1854 60.5279 25.9888C60.2739 25.7923 59.8944 25.694 59.3894 25.694H58.4278V28.1479Z" fill="black"/>
<path d="M51.5524 25V25.7167H48.4316V27.8758H50.9581V28.5652H48.4316V30.7833H51.5524V31.5H47.5471V25H51.5524Z" fill="black"/>
<path d="M41.5471 28.2523C41.5471 28.7391 41.47 29.1821 41.3158 29.5813C41.1615 29.9805 40.9438 30.3222 40.6626 30.6064C40.3814 30.8907 40.0442 31.1114 39.6511 31.2687C39.258 31.4229 38.8225 31.5 38.3447 31.5H35.9135V25H38.3447C38.8225 25 39.258 25.0786 39.6511 25.2359C40.0442 25.3901 40.3814 25.6108 40.6626 25.8981C40.9438 26.1824 41.1615 26.5241 41.3158 26.9232C41.47 27.3224 41.5471 27.7654 41.5471 28.2523ZM40.6444 28.2523C40.6444 27.8531 40.59 27.4963 40.4811 27.1818C40.3723 26.8673 40.2181 26.6012 40.0185 26.3835C39.8189 26.1657 39.577 25.9994 39.2927 25.8845C39.0085 25.7696 38.6925 25.7121 38.3447 25.7121H36.798V30.7879H38.3447C38.6925 30.7879 39.0085 30.7304 39.2927 30.6155C39.577 30.5006 39.8189 30.3358 40.0185 30.1211C40.2181 29.9033 40.3723 29.6372 40.4811 29.3227C40.59 29.0083 40.6444 28.6514 40.6444 28.2523Z" fill="black"/>
<path d="M27.5276 28.9145V31.5H26.6521V28.9145L24.2708 25H25.0419C25.1205 25 25.1825 25.0197 25.2278 25.059C25.2732 25.0983 25.3125 25.1467 25.3458 25.2041L26.8336 27.7306C26.894 27.8365 26.9439 27.9363 26.9832 28.03C27.0256 28.1237 27.0634 28.216 27.0966 28.3067C27.1299 28.213 27.1662 28.1192 27.2055 28.0255C27.2448 27.9317 27.2947 27.8334 27.3552 27.7306L28.8384 25.2041C28.8657 25.1557 28.9019 25.1104 28.9473 25.068C28.9957 25.0227 29.0577 25 29.1333 25H29.9135L27.5276 28.9145Z" fill="black"/>
<path d="M18.2708 31.5H17.3863V28.5426H13.8845V31.5H13V25H13.8845V27.8985H17.3863V25H18.2708V31.5Z" fill="black"/>
</svg>
