<svg width="60" height="60" viewBox="0 0 60 60" fill="none" xmlns="http://www.w3.org/2000/svg">
<rect width="60" height="60" rx="30" fill="#0B20B5"/>
<path d="M39.4155 34.1194H39.9121C44.1029 34.1194 47.5 30.8184 47.5 26.7462V23.3731C47.5 19.301 44.1029 16 39.9121 16H20.0879C15.8971 16 12.5 19.301 12.5 23.3731V41.611C12.5 42.93 13.6012 44 14.9604 44C16.3196 44 17.4189 42.93 17.4189 41.611V23.3731C17.4189 21.9407 18.6138 20.7797 20.0879 20.7797H39.9121C41.3862 20.7797 42.5811 21.9407 42.5811 23.3731V26.7462C42.5811 28.1786 41.3862 29.3396 39.9121 29.3396H34.0652C33.0861 29.3396 32.2924 30.1108 32.2924 31.0623C32.2924 31.368 32.3791 31.6514 32.5222 31.8987L38.7173 42.76C39.3766 43.9141 40.8719 44.3315 42.0614 43.6909C43.2492 43.0502 43.6787 41.5955 43.0212 40.4414L39.4155 34.1194Z" fill="white"/>
</svg>
