<svg width="60" height="60" viewBox="0 0 60 60" fill="none" xmlns="http://www.w3.org/2000/svg">
<rect width="60" height="60" rx="10" fill="#0B20B5"/>
<path d="M30.8706 13L30.973 13.0266L31.5523 13.0654C33.8537 13.2638 36.0856 13.9068 38.1317 14.9678C40.79 16.3466 43.0534 18.3716 44.702 20.83C46.3464 23.2826 47.3008 26.1024 47.4694 29.0222L47.5 29.2021V30.7979L47.4686 30.9722C46.9976 39.3903 40.0992 46.2327 31.5135 46.9363L30.9375 46.9734L30.835 47H29.165L29.0625 46.9734L28.4832 46.9355C26.4157 46.8007 24.4027 46.2319 22.5261 45.363C16.7921 42.7087 12.9008 37.2095 12.5314 31.0125L12.5 30.8326L12.505 29.2045L12.5512 28.6841C12.8024 25.8757 13.723 23.1721 15.3121 20.8082C16.8276 18.554 18.867 16.6645 21.251 15.3026C23.635 13.9407 26.3686 13.1533 29.1344 13.0161L30.8714 13H30.8706ZM45.6019 30.0081C45.6019 21.5964 38.6176 14.7766 30.0012 14.7766C21.3849 14.7766 14.4014 21.5956 14.4014 30.0081C14.4014 38.4205 21.3857 45.2396 30.0021 45.2396C38.6184 45.2396 45.6027 38.4205 45.6027 30.0081H45.6019Z" fill="white"/>
<path d="M23.9854 36.0986C23.5227 36.3801 22.955 36.2841 22.6657 35.8444C22.3914 35.4273 22.5162 34.8432 22.9831 34.5761C23.4541 34.3067 23.9259 34.0767 24.4391 33.8831L26.3116 33.178C26.3694 33.1562 26.4248 33.0513 26.4273 32.9989C26.4298 32.9464 26.381 32.827 26.3265 32.8101L24.1466 32.1259L23.0888 31.7023C22.6129 31.5119 22.4013 30.9883 22.5889 30.5301C22.7765 30.0718 23.2962 29.8419 23.7722 30.0307L24.8572 30.4615C25.4464 30.6955 26.043 30.856 26.6595 31.0166C27.6024 31.2626 28.2651 32.0138 28.27 32.986C28.275 33.8581 27.723 34.5818 26.8925 34.8948L25.0233 35.5992C24.663 35.7347 24.3267 35.892 23.9871 36.0986H23.9854Z" fill="white"/>
<path d="M36.0799 36.1397L34.9982 35.7161L33.1414 35.1377C32.3092 34.8787 31.7589 34.1493 31.7316 33.2958C31.7043 32.4422 32.1737 31.6983 32.9711 31.3925L35.0387 30.6003C35.3725 30.472 35.6907 30.3276 35.989 30.1388C36.4468 29.8491 37.0277 29.925 37.3276 30.3744C37.6276 30.8237 37.4698 31.403 36.9822 31.6701C36.4649 31.9533 35.9518 32.1993 35.3948 32.4075L33.6975 33.0416C33.6215 33.0699 33.5661 33.1691 33.5711 33.2409C33.5769 33.328 33.6463 33.4095 33.7413 33.4394L35.6047 34.0138L36.9227 34.5302C37.421 34.7254 37.6094 35.3055 37.3822 35.7565C37.1425 36.2317 36.5699 36.3882 36.0782 36.1397H36.0799Z" fill="white"/>
<path d="M30.6301 40.4545C29.3369 40.135 28.0783 40.845 27.6205 42.0245C27.4396 42.4916 26.8793 42.674 26.4397 42.5029C25.9786 42.3238 25.7356 41.8147 25.9232 41.3363C26.5595 39.7122 28.151 38.6021 29.9459 38.5819C31.7795 38.5617 33.424 39.6783 34.0776 41.3363C34.2652 41.8131 34.0206 42.319 33.562 42.5005C33.0992 42.6844 32.5563 42.4747 32.3654 42.0011C32.0655 41.254 31.4573 40.6586 30.6301 40.4545Z" fill="white"/>
<path d="M19.6223 26.8753C19.1091 26.7752 18.8447 26.2718 18.9348 25.8256C19.0248 25.3795 19.4843 25.0253 19.9908 25.1197C22.1798 25.5255 24.4168 24.8325 25.9579 23.2576C26.3199 22.8873 26.9066 22.8768 27.2743 23.2245C27.642 23.5723 27.6445 24.1459 27.2809 24.5146C25.3067 26.5154 22.4385 27.4255 19.6215 26.8753H19.6223Z" fill="white"/>
<path d="M39.9943 25.1205C40.5306 25.0213 40.9909 25.3884 41.071 25.8531C41.1603 26.3751 40.7991 26.8107 40.2769 26.9027C37.5045 27.3908 34.6916 26.5066 32.7356 24.5323C32.372 24.1661 32.3357 23.6134 32.71 23.2399C33.0579 22.8921 33.6611 22.8711 34.0239 23.2431C35.556 24.8147 37.7887 25.5295 39.9943 25.1213V25.1205Z" fill="white"/>
</svg>
