<svg width="60" height="60" viewBox="0 0 60 60" fill="none" xmlns="http://www.w3.org/2000/svg">
<rect width="60" height="60" rx="10" fill="#0B20B5"/>
<path fill-rule="evenodd" clip-rule="evenodd" d="M37.4974 11.2978C38.6385 10.8815 39.8638 10.9022 40.9465 11.3565C42.0447 11.8174 42.8664 12.668 43.2591 13.7508H43.2561C43.6496 14.8345 43.5645 16.0154 43.0187 17.0775C42.4804 18.124 41.5551 18.93 40.414 19.3471C39.1946 19.7924 38.2405 20.0723 37.4685 20.0723C37.098 20.0723 36.7689 20.0077 36.4731 19.8659C35.9332 19.6069 35.5819 19.1274 35.2839 18.5024L34.1539 19.3842V31.2084C34.1539 31.6411 33.8573 32.004 33.458 32.1065V33.6726C33.458 34.7569 32.5794 35.6386 31.499 35.6386C31.1617 35.6394 30.8304 35.5519 30.5368 35.3856L29.7907 39.4529C29.7774 39.5007 29.7598 39.5445 29.7392 39.5845L28.7583 45.0848H29.0038C30.7062 45.0848 32.0906 46.4661 32.0906 48.1635C32.0906 48.6244 31.7157 49 31.2549 49H18.4565C17.9958 49 17.6208 48.6251 17.6208 48.1635V45.6526C17.6208 45.571 17.6341 45.519 17.646 45.4752L20.599 35.321L17.1143 29.4397C17.0916 29.4015 17.0742 29.3617 17.0614 29.3211C15.9372 26.9065 16.5395 24.0109 18.5268 22.2425C18.7146 21.9694 21.3784 18.6991 22.6807 17.1568C22.7188 17.1117 22.7625 17.0743 22.8099 17.0446C22.8167 17.0373 22.8237 17.0302 22.8309 17.0232C23.6052 16.2751 24.3085 15.7326 24.9201 15.4112C28.9202 13.3077 31.8532 14.4129 32.6438 14.7922L34.628 14.3313C34.699 14.0863 34.7906 13.848 34.9016 13.6187C35.4251 12.5418 36.3474 11.7179 37.4974 11.2978ZM18.7301 46.1989V47.8874H24.4475C24.3115 46.9344 23.4854 46.1989 22.4892 46.1989H18.7301ZM25.2447 46.1989V46.7786C25.4207 47.1244 25.5287 47.5007 25.5635 47.8874H30.9628C30.8267 46.9344 30.0007 46.1989 29.0046 46.1989H25.2447ZM22.4552 45.0848C23.0542 45.0759 23.728 45.2941 24.1399 45.5643H24.1406L24.6553 40.4319L22.4552 45.0848ZM18.9091 23.4211C17.572 24.8781 17.2185 27.0365 18.0705 28.8578C18.0787 28.8753 18.0859 28.893 18.0921 28.9108L21.6764 34.958C21.7556 35.0909 21.7763 35.2512 21.7327 35.3997L18.9143 45.0856H21.2268L25.5213 36.0031C25.8149 35.3796 25.8371 34.6619 25.582 34.0222L23.6252 29.1287L18.9091 23.4211ZM25.1775 28.1445C25.0155 28.3835 24.8624 28.6292 24.7197 28.8801L26.6107 33.608C26.9804 34.5328 26.9486 35.5801 26.5226 36.4804L26.0693 37.4393L25.3024 45.0856H27.6305L28.8529 38.2372C28.8648 38.1722 28.8875 38.1119 28.9188 38.0579L29.3632 35.635C28.3404 35.5711 27.5277 34.7161 27.5276 33.6733V32.1221C27.0958 32.0449 26.766 31.6656 26.7652 31.2107V30.7111L25.1775 28.1445ZM28.6385 32.1369V33.6733H28.6392C28.6392 34.1431 29.0208 34.5261 29.4889 34.5261C29.957 34.5261 30.3387 34.1439 30.3387 33.6733V32.1369H28.6385ZM31.448 32.1369V33.6733C31.448 33.9561 31.3865 34.2359 31.2682 34.4934C31.3429 34.515 31.4206 34.5261 31.5005 34.5261C31.9686 34.5261 32.3502 34.1439 32.3502 33.6733V32.1369H31.448ZM29.4046 18.6747C28.9956 18.6732 28.603 18.8365 28.3146 19.1282C28.0247 19.4184 27.8626 19.8125 27.8641 20.2229L27.876 31.0236H30.9458V20.2214C30.9458 19.3686 30.2543 18.6747 29.4046 18.6747ZM33.0461 22.0495C32.7798 22.4043 32.4537 22.771 32.0551 23.1458V31.0236H33.0461V22.0495ZM26.7615 26.2876C26.4569 26.5733 26.1684 26.8768 25.8977 27.196L26.7645 28.5965L26.7615 26.2876ZM32.1017 15.7645C31.4139 15.4475 28.918 14.5643 25.4355 16.3961C24.9164 16.6692 24.2989 17.1494 23.6 17.8248C23.5725 17.8515 23.5428 17.8748 23.5117 17.8946C22.5072 19.085 20.0431 22.021 19.6516 22.5727L24.0312 27.8729C24.7641 26.7054 25.6796 25.6819 26.7623 24.8194L26.7571 20.2229C26.7563 19.5119 27.0315 18.8439 27.5321 18.3407C28.0328 17.8375 28.6984 17.5606 29.4068 17.5606C30.8681 17.5606 32.0573 18.7541 32.0573 20.2207V21.5092C32.6718 20.7291 33.0157 19.929 33.0461 19.1809L32.1017 15.7645ZM35.8031 14.3208C35.4962 15.0809 35.4799 15.9159 35.7631 16.6974C36.1965 17.8931 36.4864 18.6368 36.953 18.8609C37.4278 19.0895 38.3219 18.927 40.0362 18.3006V18.3013C40.3372 18.1915 40.6227 18.0437 40.8867 17.8627L40.2543 16.1192C40.0443 15.5403 39.5629 15.1194 38.9668 14.9925L35.8031 14.3208ZM33.259 15.7912L33.9143 18.1625L34.8506 17.4322C34.8077 17.3164 34.7648 17.1992 34.7211 17.0782C34.5355 16.5675 34.4467 16.0398 34.4519 15.5143L33.259 15.7912ZM39.1635 12.1128C38.7331 12.1128 38.2975 12.1892 37.876 12.3436C37.3088 12.5507 36.8155 12.8854 36.4302 13.3159L39.1968 13.903C40.1707 14.1101 40.9554 14.7966 41.2971 15.7385L41.7593 17.0143C41.8628 16.8726 41.9545 16.7226 42.0351 16.5668C42.4374 15.7837 42.5018 14.9191 42.2163 14.1316C41.9308 13.3434 41.3281 12.7229 40.5183 12.383C40.0894 12.2033 39.6294 12.1128 39.1635 12.1128Z" fill="white"/>
</svg>
