<svg width="60" height="60" viewBox="0 0 60 60" fill="none" xmlns="http://www.w3.org/2000/svg">
<rect width="60" height="60" rx="10" fill="#0B20B5"/>
<path d="M21.6381 37.2928C21.9054 37.0229 22.3386 37.0229 22.6059 37.2928C22.8731 37.5627 22.8731 38.0003 22.6059 38.2702L13.6681 47.2976C13.4009 47.5675 12.9676 47.5675 12.7004 47.2976C12.4332 47.0277 12.4332 46.5901 12.7004 46.3202L21.6381 37.2928ZM24.5421 40.2245C24.8094 39.9546 25.2426 39.9546 25.5098 40.2245C25.777 40.4944 25.777 40.932 25.5098 41.2019L20.9308 45.8269C20.6636 46.0968 20.2303 46.0967 19.9631 45.8269C19.6959 45.557 19.6959 45.1194 19.9631 44.8495L24.5421 40.2245ZM30.7056 18.452C34.4445 13.8419 40.3791 11.672 46.1669 12.789L46.3036 12.816L46.6314 12.8822L46.7812 13.1842C48.0992 15.8419 47.4303 19.1995 46.1771 22.0862C46.1577 22.1922 46.1137 22.2944 46.0451 22.3837C44.7465 25.2514 42.8047 27.8338 41.2597 29.1119L38.4259 31.4561C38.888 33.4164 38.718 35.0633 38.1484 36.4285C37.5411 37.8845 36.5048 38.9602 35.4274 39.7411C34.3509 40.5213 33.2095 41.025 32.3458 41.3333C31.9121 41.4881 31.5433 41.5953 31.2808 41.6644C31.1495 41.6989 31.0444 41.724 30.9707 41.7407C30.9339 41.7491 30.9048 41.7553 30.8842 41.7597C30.8739 41.7619 30.8657 41.7635 30.8597 41.7647C30.8567 41.7654 30.8542 41.7659 30.8523 41.7662C30.8514 41.7664 30.8505 41.7666 30.8498 41.7667C30.8495 41.7668 30.8491 41.7669 30.849 41.7669C30.8486 41.767 30.8483 41.767 30.7183 41.0885L30.8483 41.767L29.9548 41.9417L30.3297 37.7586L27.0622 39.3497L23.8289 36.084C23.8244 36.0797 23.8198 36.0755 23.8155 36.0711C23.8111 36.0666 23.8069 36.062 23.8026 36.0574L20.5694 32.7918L22.1446 29.4915L18.0038 29.8702L18.1767 28.9677L18.8485 29.099C18.1803 28.9684 18.1768 28.9674 18.1768 28.967C18.1769 28.9669 18.177 28.9665 18.177 28.9662C18.1772 28.9655 18.1773 28.9646 18.1775 28.9637C18.1779 28.9617 18.1784 28.9593 18.179 28.9562C18.1802 28.9502 18.1818 28.9419 18.184 28.9315C18.1883 28.9106 18.1945 28.8813 18.2028 28.8441C18.2193 28.7696 18.2441 28.6635 18.2783 28.5308C18.3467 28.2657 18.4529 27.8933 18.6062 27.4551C18.9114 26.5828 19.4101 25.43 20.1826 24.3427C20.9557 23.2545 22.0207 22.2078 23.4622 21.5944C24.8138 21.0192 26.4441 20.8474 28.3847 21.3139L30.7056 18.452ZM18.7355 34.3604C19.0028 34.0905 19.436 34.0905 19.7033 34.3604C19.9704 34.6303 19.9704 35.0679 19.7033 35.3378L13.6729 41.4286C13.4057 41.6985 12.9724 41.6985 12.7052 41.4286C12.438 41.1587 12.438 40.7211 12.7052 40.4512L18.7355 34.3604ZM31.7755 36.9575L31.488 40.1657C31.6126 40.1259 31.7472 40.0809 31.8899 40.03C32.6776 39.7488 33.6913 39.2981 34.6295 38.6181C35.5669 37.9387 36.4049 37.0483 36.8873 35.8918C37.272 34.9696 37.447 33.8391 37.2272 32.4476L31.7755 36.9575ZM25.2673 35.582L27.3429 37.6785L29.9544 36.4068L27.2025 33.6273L25.2673 35.582ZM37.6179 14.9725C35.3764 15.8906 33.3535 17.3683 31.7642 19.3279L31.7642 19.3278L29.1834 22.5104C29.1721 22.5255 29.1603 22.5401 29.1479 22.5542L24.2071 28.647L27.2026 31.6726L32.4521 26.3704C32.7193 26.1005 33.1526 26.1005 33.4198 26.3704C33.687 26.6403 33.687 27.0779 33.4198 27.3478L28.1702 32.6499L31.1657 35.6754L37.2171 30.6694C37.2215 30.6657 37.2259 30.662 37.2304 30.6584L40.3925 28.0426L40.4574 27.9882C41.7522 26.8903 43.4613 24.653 44.6687 22.0939L37.6179 14.9725ZM22.224 32.5082L24.2996 34.6046L26.2349 32.65L23.483 29.8705L22.224 32.5082ZM27.4029 22.5246C26.0255 22.3028 24.9066 22.4796 23.9936 22.8681C22.8486 23.3554 21.967 24.2018 21.2944 25.1485C20.6212 26.0962 20.1749 27.1201 19.8965 27.9157C19.8461 28.0598 19.8015 28.1957 19.7621 28.3215L22.9377 28.0312L27.4029 22.5246ZM34.6301 20.5063C35.8994 19.2236 37.9569 19.225 39.2262 20.5061C40.4961 21.7879 40.4959 23.8662 39.2265 25.1485C37.9575 26.4311 35.8989 26.4311 34.6299 25.1485C33.3603 23.8667 33.3606 21.7885 34.6301 20.5063ZM38.2588 21.4839C37.5233 20.7415 36.3321 20.7415 35.5979 21.4835L35.5978 21.4837C34.8625 22.2264 34.8627 23.4294 35.5976 24.1711L35.5979 24.1715C36.3324 24.9138 37.524 24.9138 38.2585 24.1715L38.2587 24.1713C38.994 23.4287 38.9937 22.2256 38.2588 21.4839ZM45.6956 14.107C43.4465 13.7076 41.1785 13.8481 39.0553 14.4694L45.2509 20.7272C46.1558 18.3407 46.4619 15.9569 45.6956 14.107Z" fill="white"/>
</svg>
