<svg width="60" height="60" viewBox="0 0 60 60" fill="none" xmlns="http://www.w3.org/2000/svg">
<rect width="60" height="60" rx="10" fill="#0B20B5"/>
<path fill-rule="evenodd" clip-rule="evenodd" d="M29.9984 12.5C31.4054 12.5 32.7131 12.913 33.681 13.6626C34.6568 14.4182 35.1216 15.4443 35.0308 16.6378C37.3087 17.3899 38.9957 18.6598 39.7917 20.2245C40.8626 22.3325 40.4711 24.8651 40.1424 26.1872C39.7484 27.7712 39.053 29.2807 38.3998 29.9782C38.2931 30.8108 38.0955 31.5974 37.8138 32.3185C37.9839 32.464 38.1889 32.5738 38.4237 32.6459L39.0677 32.843C39.2738 32.9061 39.4349 33.0663 39.4983 33.2712C39.6044 33.6127 39.4111 33.9766 39.0677 34.0821L38.4237 34.2792C37.8747 34.446 37.4954 34.8232 37.3264 35.3696L37.1282 36.0112C37.0428 36.2853 36.7928 36.4691 36.5049 36.4691C36.217 36.4691 35.9669 36.2847 35.8828 36.0112L35.6937 35.3999C35.0643 35.9584 34.3403 36.4145 33.5371 36.759V38.7585C33.5371 39.3176 33.9414 39.7773 34.4989 39.8525L35.3735 39.9696C41.908 40.8447 42.2313 45.8043 42.2294 46.7898V46.8523C42.2294 47.2092 41.9378 47.4995 41.579 47.4999C41.2202 47.4994 40.9285 47.2092 40.9285 46.8523V46.7892C40.9285 45.6708 40.5156 41.966 35.1991 41.2541L34.3245 41.137C33.1132 40.9751 32.2343 39.975 32.2343 38.7597V37.2017C31.5421 37.3806 30.8029 37.4892 30.0326 37.5237C30.0216 37.5243 30.01 37.5249 29.999 37.5249C29.9923 37.5249 29.985 37.5249 29.9782 37.5243H29.9697C29.2031 37.4904 28.4627 37.3818 27.7637 37.2005V38.7597C27.7637 39.975 26.8848 40.9751 25.6735 41.137L24.7989 41.2541C19.4824 41.9667 19.0695 45.6708 19.0695 46.7892V46.8523C19.0695 47.2095 18.7773 47.5 18.4181 47.5C18.0589 47.5 17.7667 47.2095 17.7667 46.8523V46.7892C17.7667 45.8036 18.0973 40.8453 24.6251 39.9702L25.4997 39.8531C26.0572 39.7785 26.4616 39.3182 26.4616 38.7591V36.7547C25.5931 36.383 24.8203 35.8838 24.1622 35.2707C22.7607 33.9626 21.8751 32.1341 21.5982 29.9794C20.9779 29.3129 20.3021 27.8798 19.9051 26.3806C19.6001 25.2308 19.1982 23.0221 19.8782 21.011C19.7081 20.8655 19.5037 20.7564 19.2689 20.6842L18.6249 20.4871C18.3498 20.4022 18.1644 20.1535 18.1644 19.8672C18.1644 19.581 18.3492 19.3311 18.6249 19.2475L19.2683 19.0504C19.8178 18.883 20.1972 18.5051 20.3661 17.9587L20.5644 17.3183C20.6278 17.1127 20.7894 16.952 20.9962 16.889C21.0584 16.8702 21.1224 16.8604 21.1871 16.8604C21.475 16.8604 21.725 17.0448 21.8098 17.3183L22.008 17.9587C22.0226 18.006 22.0391 18.0527 22.0568 18.0982C22.8539 17.5057 23.831 17.0175 24.9666 16.6439C24.8739 15.448 25.3387 14.4194 26.3158 13.6626C27.2837 12.913 28.5913 12.5 29.9984 12.5ZM29.9996 23.0542C28.4431 23.0542 27.0489 23.3762 26.2706 23.9154C25.2283 24.637 24.7843 25.665 24.1238 27.8446C23.8402 28.7828 23.212 29.5554 22.8997 29.8987H22.9009C23.4187 33.6775 26.0669 36.0403 30.0008 36.2271C31.9641 36.1343 33.642 35.5012 34.871 34.3919C34.7825 34.3477 34.688 34.3107 34.5892 34.2804L33.9451 34.0833C33.7389 34.0202 33.578 33.8601 33.5139 33.6551C33.4627 33.4896 33.4791 33.3143 33.5603 33.1608C33.6414 33.0074 33.778 32.8952 33.9445 32.8443L34.5886 32.6472C35.1381 32.4798 35.5175 32.102 35.6864 31.5556L35.8846 30.9151C35.9481 30.7095 36.1096 30.5488 36.3164 30.4857C36.3786 30.4669 36.4427 30.4572 36.5073 30.4572C36.6842 30.4573 36.847 30.527 36.966 30.644C37.0209 30.399 37.0654 30.1498 37.0996 29.8987C36.7867 29.5548 36.1585 28.781 35.8755 27.8446C35.2149 25.6644 34.7709 24.637 33.7286 23.9154C32.9503 23.3762 31.5561 23.0542 29.9996 23.0542ZM36.5079 32.8018C36.325 33.059 36.1023 33.2797 35.8431 33.4629C36.1017 33.6454 36.3244 33.8668 36.5079 34.1239C36.6915 33.8668 36.9141 33.6454 37.1727 33.4629C36.9141 33.2803 36.6915 33.059 36.5079 32.8018ZM29.974 17.1655C28.5658 17.1655 27.163 17.3498 25.9181 17.6986C25.8877 17.7095 25.8608 17.718 25.834 17.724C25.8273 17.7258 25.8199 17.7271 25.8132 17.7283C24.7251 18.043 23.7608 18.4851 23.0027 19.0152C23.0369 19.0279 23.0717 19.0394 23.1077 19.0504L23.7517 19.2475C23.9579 19.3105 24.1189 19.4706 24.1823 19.6756C24.2336 19.8412 24.2171 20.0164 24.1359 20.1699C24.0548 20.3227 23.9182 20.4355 23.7517 20.4864L23.1077 20.6835C22.5588 20.8515 22.1794 21.2287 22.0104 21.7752L21.8122 22.4162C21.7268 22.6903 21.4768 22.8741 21.1889 22.8741C21.0621 22.8741 20.9425 22.8383 20.8413 22.7752V22.7746C20.6382 25.0786 21.575 27.6021 22.2337 28.667C22.4545 28.3753 22.7357 27.9398 22.8784 27.468C23.6164 25.0325 24.1738 23.7874 25.5278 22.8486C26.5164 22.1639 28.1888 21.7551 30.0014 21.7551C31.8141 21.7551 33.4871 22.1639 34.4751 22.8486C35.8297 23.788 36.3877 25.0325 37.1245 27.468C37.2666 27.9374 37.5454 28.3698 37.7649 28.6609C38.5706 27.3394 40.0258 23.5527 38.631 20.8073C37.7936 19.1589 35.6723 17.9217 32.8113 17.4129C31.8861 17.2486 30.9316 17.1655 29.974 17.1655ZM21.1889 19.2068C21.006 19.464 20.7833 19.6847 20.5241 19.8679C20.7827 20.0504 21.0053 20.2718 21.1889 20.5289C21.3725 20.2718 21.5951 20.0504 21.8537 19.8679C21.5951 19.6853 21.3725 19.464 21.1889 19.2068ZM30.0008 13.7978C28.8981 13.7978 27.8478 14.1217 27.119 14.6863C26.5707 15.1102 26.2834 15.6481 26.2627 16.2879C27.4575 16.015 28.7164 15.8767 30.0087 15.8767C31.034 15.8767 32.0538 15.9659 33.04 16.1412C33.2693 16.1818 33.5035 16.2291 33.7389 16.2825C33.717 15.6463 33.4297 15.1102 32.8826 14.6869C32.1538 14.1223 31.1035 13.7984 30.0008 13.7984V13.7978Z" fill="white"/>
<path d="M41.5799 47.5H41.5781C41.5784 47.5 41.5787 47.4999 41.579 47.4999C41.5793 47.4999 41.5796 47.5 41.5799 47.5Z" fill="white"/>
<path fill-rule="evenodd" clip-rule="evenodd" d="M44.4928 34.2179C44.7807 34.2179 45.0308 34.4017 45.1155 34.6752L45.4376 35.7171C45.7499 36.725 46.4793 37.4503 47.4917 37.7596L48.5395 38.0792C48.7457 38.1423 48.9067 38.303 48.9708 38.5074C49.022 38.673 49.0055 38.8483 48.9244 39.0017C48.8433 39.1551 48.7067 39.2673 48.5402 39.3182L47.4923 39.6385C46.4787 39.9484 45.7492 40.6737 45.4382 41.681L45.1167 42.7229C45.0533 42.9279 44.8923 43.088 44.6862 43.1517C44.6233 43.1711 44.5587 43.1808 44.494 43.1808H44.4934C44.2055 43.1807 43.9555 42.997 43.8707 42.7235L43.5487 41.6816C43.237 40.6737 42.5076 39.9484 41.4945 39.6391L40.4467 39.3194C40.2406 39.2564 40.0795 39.0963 40.0155 38.8913C39.9094 38.5499 40.1027 38.186 40.4461 38.0805L41.4939 37.7602C42.5076 37.4503 43.237 36.725 43.5481 35.7177L43.8695 34.6758C43.9329 34.4708 44.0945 34.3101 44.3007 34.247C44.3635 34.2276 44.4282 34.2179 44.4928 34.2179ZM44.494 36.8415C44.0793 37.6541 43.4431 38.2873 42.6265 38.6991V38.6996C43.4437 39.1114 44.0799 39.7446 44.494 40.5566C44.9081 39.744 45.5449 39.1114 46.3622 38.6991C45.5449 38.2873 44.9087 37.6541 44.494 36.8415Z" fill="white"/>
<path fill-rule="evenodd" clip-rule="evenodd" d="M15.5058 30.4445C15.7936 30.4445 16.0437 30.6283 16.1285 30.9018L16.4505 31.9437C16.7616 32.951 17.491 33.677 18.5047 33.9863L19.5525 34.3058C19.7587 34.3689 19.9197 34.5297 19.9837 34.734C20.0349 34.8996 20.0185 35.0748 19.9374 35.2283C19.8562 35.3817 19.7196 35.4939 19.5531 35.5449L18.5053 35.865C17.4917 36.1749 16.7622 36.9003 16.4511 37.9076L16.1297 38.9495C16.0663 39.1545 15.9053 39.3146 15.6991 39.3783C15.6363 39.3977 15.5717 39.4074 15.507 39.4074V39.408C15.2192 39.408 14.9691 39.2242 14.8843 38.9507L14.5623 37.9088C14.25 36.9009 13.5206 36.1756 12.5081 35.8663L11.4603 35.5466C11.2541 35.4836 11.0931 35.3229 11.0291 35.1179C10.923 34.7765 11.1163 34.4126 11.4597 34.3071L12.5075 33.9868C13.5212 33.6763 14.2506 32.951 14.5617 31.9443L14.8831 30.9024C14.9465 30.6974 15.1075 30.5373 15.3137 30.4736C15.3765 30.4542 15.4411 30.4445 15.5058 30.4445ZM15.5076 33.0687C15.0935 33.8813 14.4568 34.5139 13.6395 34.9263C14.4568 35.3381 15.0929 35.9712 15.5076 36.7838C15.9217 35.9712 16.5585 35.3387 17.3758 34.9263C16.5585 34.5145 15.9224 33.8813 15.5076 33.0687Z" fill="white"/>
</svg>
