<svg width="60" height="60" viewBox="0 0 60 60" fill="none" xmlns="http://www.w3.org/2000/svg">
<rect width="60" height="60" rx="10" fill="#0B20B5"/>
<path fill-rule="evenodd" clip-rule="evenodd" d="M39.1229 12.5C40.2182 12.5 41.2652 13.0783 41.8172 14.0596C45.539 20.6729 47.4989 28.2065 47.4989 35.8057V40.2539C47.4989 40.6421 47.2796 40.9971 46.9325 41.1709C44.0214 42.6268 34.9291 47.5 21.7958 47.5C15.9749 47.5 11.3433 42.0382 12.7577 35.9902C13.5217 32.7214 16.1955 30.0785 19.4315 29.2695C22.8017 28.4271 25.9966 29.4512 28.1737 31.5332C31.1713 30.9219 34.287 31.0243 37.246 31.835V23.7793C37.246 23.213 36.7868 22.7542 36.2206 22.7539H30.0682C28.3692 22.7539 26.992 21.3767 26.992 19.6777V15.5762C26.992 13.8772 28.3692 12.5 30.0682 12.5H39.1229ZM30.0682 14.5508C29.5018 14.5508 29.0428 15.0098 29.0428 15.5762V19.6777C29.0428 20.2441 29.5018 20.7031 30.0682 20.7031H33.1434V18.6523H32.118C31.5517 18.6523 31.0926 18.1933 31.0926 17.627C31.0926 17.0606 31.5517 16.6016 32.118 16.6016H34.1688C34.7349 16.6018 35.1942 17.0608 35.1942 17.627V20.7031H36.2206C37.9194 20.7034 39.2967 22.0804 39.2967 23.7793V32.5205C39.7981 32.7203 40.2928 32.9414 40.7792 33.1846C41.2857 33.4378 41.4914 34.054 41.2381 34.5605C40.9848 35.0669 40.3686 35.2718 39.8622 35.0186C34.987 32.581 29.1797 32.581 24.3045 35.0186C23.7982 35.2716 23.183 35.0666 22.9295 34.5605C22.6763 34.0541 22.8811 33.4379 23.3876 33.1846C24.1506 32.803 24.9344 32.4759 25.7323 32.2012C24.1341 31.1503 22.0893 30.7196 19.9286 31.2598C17.4171 31.8877 15.3388 33.9578 14.7547 36.457C13.6482 41.1878 17.2644 45.4492 21.7958 45.4492C33.675 45.4492 42.1008 41.308 45.4481 39.6221V35.8057C45.4481 28.5559 43.5777 21.3692 40.0301 15.0654C39.8562 14.7562 39.5082 14.5508 39.1229 14.5508H30.0682Z" fill="white"/>
</svg>
