<svg width="60" height="60" viewBox="0 0 60 60" fill="none" xmlns="http://www.w3.org/2000/svg">
<rect width="60" height="60" rx="10" fill="#0B20B5"/>
<path d="M40.865 28.2109C40.8665 27.5707 41.2518 27.0202 41.8094 26.7295C41.0082 23.119 38.8735 19.9423 35.8586 17.7763C32.6224 15.4513 28.5772 14.4602 24.6018 15.0175C21.4514 15.4589 18.5193 16.8604 16.2091 19.0121C14.3324 20.7602 12.9246 22.9359 12.1295 25.3595C11.1414 28.3705 11.1399 31.6105 12.1241 34.6223C12.9177 37.0526 14.3301 39.2352 16.2075 40.9855C18.9635 43.5536 22.5881 45.0396 26.3896 45.1284H27.151C30.8867 45.0403 34.4615 43.6267 37.2021 41.1301C37.4909 40.8665 37.8754 40.7949 38.1925 41.0547C38.4813 41.2912 38.5295 41.7469 38.2561 42.0338L37.5912 42.6311L37.4878 42.7056C34.5557 45.1036 30.8744 46.4344 27.0637 46.4976C23.181 46.5624 19.3986 45.3032 16.36 42.9248L16.2435 42.8359C15.6346 42.3697 15.08 41.8538 14.5538 41.2942L14.4642 41.1986C12.5929 39.2103 11.2394 36.7996 10.5416 34.1644C9.81013 31.4004 9.81932 28.4843 10.5707 25.7255C11.277 23.1333 12.6289 20.7692 14.4642 18.8005L14.5431 18.7162C15.0693 18.1513 15.64 17.646 16.2443 17.164L16.3577 17.0789C19.7816 14.3864 24.1446 13.1528 28.4869 13.5843C33.9866 14.1304 38.901 17.3417 41.536 22.1263C42.3135 23.5385 42.8818 25.0605 43.2127 26.6353C43.8875 26.8726 44.3494 27.4698 44.3778 28.1551L44.3885 29.9755L46.2 31.1579L48.118 32.4051C48.1494 32.3983 48.1655 32.4246 48.1777 32.445L49.6392 33.3939C49.8759 33.5475 50.0008 33.766 50 34.0506L49.9954 35.5802C49.9655 35.9681 49.6499 36.231 49.247 36.2227L44.4367 35.1909C44.4122 35.1856 44.3862 35.1818 44.3862 35.2105L44.3808 36.6188C44.3808 36.7604 44.3012 36.8726 44.2292 36.9878L43.2564 38.5506C43.1284 38.7554 42.9515 38.9016 42.7232 38.9241C42.495 38.9467 42.2123 38.8797 42.0791 38.6681L40.9646 36.9012C40.8864 36.7777 40.8612 36.6482 40.8612 36.5051V35.276C40.8619 35.2489 40.8727 35.1954 40.842 35.1833C40.8236 35.1758 40.7907 35.1924 40.7532 35.2007L36.1267 36.1978C35.7108 36.2874 35.265 36.0329 35.2627 35.5938L35.255 34.0017C35.2542 33.7901 35.34 33.5739 35.5277 33.4519L40.8596 29.9739L40.8642 28.2086L40.865 28.2109ZM42.6267 36.9276L42.9975 36.3454V28.2515C42.9806 28.0467 42.8152 27.8983 42.6206 27.9006C42.446 27.9028 42.2491 28.0467 42.2491 28.2515L42.2476 36.3439L42.6267 36.9276ZM36.643 34.367L36.6544 34.6848L40.8635 33.781L40.8596 31.6233L38.7586 32.988C38.7394 33.0339 38.7103 33.0527 38.6605 33.0535L36.6437 34.367H36.643ZM48.599 34.6855C48.6212 34.5289 48.6143 34.4716 48.6036 34.367L44.3862 31.6203L44.3846 33.7825L48.599 34.6855Z" fill="white"/>
<path d="M19.9922 37.5632C24.0703 41.124 30.3413 40.9071 34.116 37.0519C34.4017 36.7597 34.8314 36.7002 35.1416 36.9743C35.4519 37.2484 35.4205 37.7033 35.1424 37.9865C32.8851 40.2835 29.7722 41.5315 26.5214 41.4592C24.0289 41.4035 21.6161 40.5682 19.6452 39.0582C18.9428 38.5197 18.2979 37.9052 17.7395 37.2304C16.1424 35.3001 15.2263 32.9225 15.1321 30.4334C15.0272 27.6528 15.9448 24.9363 17.7318 22.7831L17.8023 22.6927C19.9876 20.1192 23.1457 18.6017 26.5712 18.5414C29.0568 18.4978 31.4795 19.2305 33.504 20.6412C36.5955 22.7959 38.4675 26.3039 38.4307 30.0447C38.4269 30.4175 38.0876 30.6842 37.7383 30.6819C37.389 30.6796 37.0497 30.4123 37.0512 30.044C37.0604 27.1625 35.8103 24.4136 33.6564 22.5142C30.0073 19.2494 24.4617 19.0197 20.546 21.9878C19.3733 22.8667 18.3913 24.0061 17.6966 25.2993C15.5006 29.3812 16.4235 34.4234 19.9225 37.5C19.9547 37.4977 19.9616 37.5346 19.993 37.5625L19.9922 37.5632Z" fill="white"/>
<path d="M30.8775 34.8083L27.9476 32.3124L27.8434 32.2311L26.3031 30.9063C26.0097 30.654 26.0135 30.2278 26.2701 29.9491L27.9691 28.0956L28.0526 27.997L28.5635 27.4517C28.8201 27.1768 29.2436 27.1572 29.5317 27.3998C29.7936 27.6204 29.8733 28.0572 29.619 28.3359L27.7745 30.3565L30.0104 32.2529L30.2241 32.4322L31.2199 33.2847L31.3202 33.3645L31.8594 33.836C32.1467 34.0868 32.1268 34.5334 31.8732 34.7917C31.6005 35.0689 31.1808 35.0666 30.879 34.8098L30.8775 34.8083Z" fill="white"/>
<path d="M19.8597 25.2827C20.1906 25.4665 20.2925 25.8701 20.1324 26.1849C19.9723 26.4998 19.5717 26.6557 19.2278 26.4945L18.507 26.0953C18.1761 25.9123 18.0451 25.526 18.2044 25.1923C18.3638 24.8587 18.7605 24.702 19.1022 24.8625L19.8589 25.2827H19.8597Z" fill="white"/>
<path d="M31.6067 23.1551C31.4022 23.5046 30.9809 23.6431 30.6301 23.4481C30.2831 23.2553 30.1881 22.8177 30.3957 22.472L30.8001 21.7972C30.9939 21.4734 31.4496 21.4146 31.7553 21.6157C32.0609 21.8168 32.149 22.2288 31.959 22.5541L31.6074 23.1551H31.6067Z" fill="white"/>
<path d="M31.9828 37.4992C32.172 37.8216 32.031 38.2222 31.73 38.4007C31.4121 38.589 30.9824 38.5107 30.7909 38.1891L30.3964 37.5271C30.1996 37.1972 30.2708 36.7853 30.5902 36.5744C30.9096 36.3635 31.3623 36.4418 31.5531 36.7672L31.9828 37.4985V37.4992Z" fill="white"/>
<path d="M23.2216 22.5918C23.3794 22.9322 23.1994 23.3381 22.8723 23.4767C22.513 23.6296 22.1392 23.479 21.9485 23.1483L21.5724 22.4946C21.3832 22.1663 21.5334 21.7543 21.8597 21.5826C22.1967 21.4048 22.6172 21.5321 22.8064 21.8642L23.2208 22.5918H23.2216Z" fill="white"/>
<path d="M34.3657 26.4809C33.998 26.6873 33.5017 26.4591 33.3929 26.1194C33.2934 25.8091 33.3837 25.4635 33.6825 25.2948L34.4262 24.8753C34.7633 24.6847 35.183 24.8557 35.3485 25.1795C35.517 25.5094 35.3883 25.907 35.0543 26.0946L34.3657 26.4817V26.4809Z" fill="white"/>
<path d="M22.7344 38.232C22.5215 38.5355 22.0872 38.5702 21.8068 38.3857C21.5073 38.1891 21.4001 37.8027 21.5808 37.4902L21.9585 36.838C22.1446 36.5156 22.5222 36.3725 22.86 36.5171C23.1978 36.6617 23.3885 37.0632 23.2185 37.4073L22.7344 38.232Z" fill="white"/>
<path d="M19.1527 35.1148C18.8111 35.3076 18.3929 35.1532 18.219 34.8354C18.0451 34.5176 18.1569 34.1003 18.4924 33.9143L19.2301 33.5054C19.5541 33.3254 19.9593 33.4941 20.1247 33.7999C20.2902 34.1056 20.2021 34.5229 19.8812 34.7036L19.1527 35.1148Z" fill="white"/>
<path d="M27.4674 39.0695C27.4674 39.4762 27.0913 39.7405 26.7075 39.7044C26.3391 39.6697 26.0802 39.3482 26.084 38.9626L26.0924 38.1891C26.0963 37.8216 26.4356 37.5617 26.7933 37.567C27.151 37.5723 27.4697 37.8457 27.4697 38.2124L27.4681 39.0695H27.4674Z" fill="white"/>
<path d="M36.0501 30.6683L35.088 30.6713C34.7219 30.6721 34.4714 30.3242 34.4768 29.9898C34.4821 29.6554 34.7433 29.3255 35.111 29.3255H36.0156C36.3749 29.3255 36.6376 29.6358 36.6521 29.9672C36.6667 30.2985 36.4285 30.6412 36.0501 30.6683Z" fill="white"/>
<path d="M27.4697 21.7769C27.4712 22.1557 27.1441 22.4268 26.7925 22.4329C26.4409 22.4389 26.0963 22.1768 26.0924 21.8093L26.084 21.0373C26.0802 20.6494 26.3375 20.3324 26.7083 20.2962C27.079 20.2601 27.4651 20.5274 27.4666 20.9198L27.4697 21.7776V21.7769Z" fill="white"/>
<path d="M18.4641 30.6713L17.5465 30.6744C17.1765 30.6759 16.913 30.3513 16.9076 30.0109C16.9023 29.6704 17.1688 29.324 17.5457 29.3247H18.4503C18.8149 29.3263 19.0776 29.6493 19.083 29.989C19.0884 30.3287 18.8387 30.6503 18.4633 30.6721L18.4641 30.6713Z" fill="white"/>
</svg>
