<svg width="60" height="60" viewBox="0 0 60 60" fill="none" xmlns="http://www.w3.org/2000/svg">
<rect width="60" height="60" rx="10" fill="#0B20B5"/>
<path d="M51.5 37.281L50.2949 38.0937L47.0845 33.2616C45.5661 41.3682 38.4948 47.5 29.9997 47.5C29.5996 47.5 29.2752 47.1735 29.2752 46.7707C29.2752 46.3679 29.5996 46.0414 29.9997 46.0414C37.9297 46.0414 44.5074 40.2115 45.7323 32.5781L40.689 36.5383L39.7981 35.3866L46.6605 30.0003L51.5 37.281Z" fill="white"/>
<path fill-rule="evenodd" clip-rule="evenodd" d="M29.9997 21.6279C32.5367 21.6279 34.5934 23.6981 34.5934 26.2517C34.5934 27.7441 33.8909 29.0714 32.8005 29.9168C35.8994 31.0645 38.1096 34.0622 38.1096 37.5798C38.1096 37.9825 37.7852 38.309 37.385 38.3091C36.9849 38.3091 36.6605 37.9825 36.6605 37.5798C36.6605 33.8769 33.6785 30.8755 29.9997 30.8754C26.3209 30.8754 23.339 33.8769 23.339 37.5798C23.339 37.9825 23.0146 38.3091 22.6144 38.3091C22.2143 38.3091 21.8899 37.9825 21.8899 37.5798C21.8899 34.0622 24.1 31.0646 27.1988 29.9168C26.1085 29.0713 25.406 27.7441 25.406 26.2517C25.406 23.6981 27.4627 21.6279 29.9997 21.6279ZM29.9997 23.0865C28.263 23.0865 26.8551 24.5036 26.8551 26.2517C26.8551 27.9998 28.263 29.4168 29.9997 29.4168C31.7364 29.4168 33.1443 27.9997 33.1443 26.2517C33.1443 24.5036 31.7364 23.0865 29.9997 23.0865Z" fill="white"/>
<path d="M29.9997 12.5C30.3999 12.5 30.7243 12.8265 30.7243 13.2293C30.7243 13.6321 30.3999 13.9586 29.9997 13.9586C22.0694 13.9586 15.4913 19.7891 14.2668 27.423L19.3104 23.4622L20.2014 24.614L13.3395 30.0003L8.5 22.7195L9.70509 21.9068L12.9149 26.7382C14.4335 18.6317 21.5048 12.5 29.9997 12.5Z" fill="white"/>
</svg>
