<svg width="60" height="60" viewBox="0 0 60 60" fill="none" xmlns="http://www.w3.org/2000/svg">
<rect width="60" height="60" rx="10" fill="#0B20B5"/>
<path fill-rule="evenodd" clip-rule="evenodd" d="M40.9769 18.9646C41.3436 18.8649 41.7205 19.0856 41.8188 19.4575L42.9137 23.6013C42.917 23.6116 42.9201 23.6219 42.9229 23.6324L44.2035 28.4816C45.0666 31.7502 43.3348 35.1039 40.2887 36.2923L42.6108 45.0825L45.1344 44.3966C45.5012 44.297 45.8781 44.5177 45.9764 44.8896C46.0747 45.2615 45.857 45.6439 45.4903 45.7435L42.311 46.6076C42.3082 46.6084 42.3055 46.6094 42.3027 46.6101C42.2999 46.6109 42.297 46.6114 42.2941 46.6122L39.1158 47.4761C38.7491 47.5757 38.3722 47.355 38.2739 46.9831C38.1756 46.6112 38.3932 46.2289 38.7599 46.1292L41.2828 45.4434L38.9607 36.6531C35.737 37.1684 32.5838 35.1426 31.72 31.8739C31.7175 31.8647 31.7154 31.8555 31.7133 31.8462L30.4415 27.0331C30.4408 27.0306 30.44 27.0281 30.4393 27.0255L29.9999 25.3628L29.5606 27.0255C29.56 27.0281 29.5591 27.0306 29.5584 27.0331L28.2865 31.8462C28.2845 31.8555 28.2824 31.8647 28.28 31.8739C27.4162 35.1426 24.2628 37.1685 21.0392 36.6531L18.717 45.4434L21.24 46.1292C21.6067 46.2289 21.8244 46.6112 21.7261 46.9831C21.6278 47.355 21.2509 47.5757 20.8842 47.4761L17.7059 46.6123C17.703 46.6115 17.7001 46.6109 17.6972 46.6101C17.6944 46.6094 17.6916 46.6084 17.6888 46.6076L14.5096 45.7435C14.1429 45.6439 13.9253 45.2615 14.0236 44.8896C14.1219 44.5177 14.4989 44.297 14.8656 44.3966L17.3891 45.0825L19.7112 36.2922C16.6652 35.1038 14.9334 31.7501 15.7964 28.4816L17.0771 23.6324L17.0867 23.5993V23.5991L18.1811 19.4575L18.1911 19.4231C18.3029 19.0721 18.6678 18.868 19.0231 18.9646L30 21.9476L40.9769 18.9646ZM17.1245 28.8424C16.3978 31.5947 18.0081 34.4237 20.7217 35.1614C23.4274 35.8962 26.208 34.2748 26.9453 31.5373C26.9472 31.5292 26.9492 31.521 26.9513 31.5129L28.0545 27.3379L18.2271 24.6672L17.1245 28.8424ZM31.9453 27.338L33.0486 31.5129C33.0508 31.521 33.0527 31.529 33.0545 31.5371C33.7917 34.2747 36.5725 35.8962 39.2782 35.1614C41.9919 34.4237 43.6022 31.5946 42.8755 28.8423L41.7728 24.6672L31.9453 27.338ZM18.5838 23.3201L28.4107 25.9904L29.158 23.1624L19.3311 20.4919L18.5838 23.3201ZM30.8419 23.1624L31.5891 25.9904L41.4161 23.3201L40.6688 20.4919L30.8419 23.1624Z" fill="white"/>
<path d="M24.5006 14.3616C24.8294 14.169 25.2498 14.2833 25.4396 14.6167L26.8145 17.0319C27.0043 17.3653 26.8916 17.7917 26.5629 17.9842C26.2341 18.1768 25.8137 18.0625 25.6238 17.7291L24.2489 15.314C24.0591 14.9805 24.1718 14.5541 24.5006 14.3616Z" fill="white"/>
<path d="M34.5604 14.6167C34.7502 14.2833 35.1706 14.169 35.4994 14.3616C35.8282 14.5541 35.9408 14.9805 35.751 15.314L34.3762 17.7291C34.1863 18.0625 33.7659 18.1767 33.4371 17.9842C33.1083 17.7917 32.9957 17.3653 33.1855 17.0319L34.5604 14.6167Z" fill="white"/>
<path d="M30 12.5C30.3796 12.5 30.6874 12.8122 30.6874 13.1972V15.986C30.6874 16.3711 30.3796 16.6832 30 16.6832C29.6203 16.6832 29.3126 16.3711 29.3126 15.986V13.1972C29.3126 12.8122 29.6203 12.5 30 12.5Z" fill="white"/>
</svg>
