<svg width="60" height="60" viewBox="0 0 60 60" fill="none" xmlns="http://www.w3.org/2000/svg">
<rect width="60" height="60" rx="10" fill="#0B20B5"/>
<path d="M29.7374 41.132C29.6858 41.0594 29.6352 40.986 29.5858 40.9118H17.0239V43.8288C17.0239 43.9415 17.1179 44.034 17.2325 44.034H29.5287C29.6434 44.034 29.7373 43.9415 29.7374 43.8288V41.132ZM37.678 31.0511C38.3708 30.2971 39.6431 30.8695 39.5084 31.8817L39.1541 34.5432H40.3179C41.2316 34.5432 41.7139 35.6084 41.1019 36.2765L41.1018 36.2765L36.9065 40.8571L36.9058 40.8578C36.213 41.6118 34.9407 41.0394 35.0754 40.0271L35.4296 37.3656H34.2659C33.3521 37.3656 32.8699 36.3004 33.4819 35.6323L37.6773 31.0517L37.678 31.0511ZM34.6887 36.1423H35.6443C36.2806 36.1423 36.7749 36.6927 36.6905 37.3164L36.387 39.5965L39.895 35.7665H38.9394C38.3032 35.7665 37.8089 35.2161 37.8932 34.5924L38.1967 32.3123L34.6887 36.1423ZM45.3425 17.3966C46.2715 17.3966 46.8202 18.4194 46.297 19.1738L46.2971 19.1739L42.114 25.2055C41.6622 25.8569 40.6948 25.8671 40.2269 25.236L40.2049 25.2055L36.0219 19.1739C35.4986 18.4195 36.0474 17.3966 36.9764 17.3966H45.3425ZM41.1595 24.411L45.1757 18.6199H37.1432L41.1595 24.411ZM45.2548 35.9541C45.2548 31.6283 41.6895 28.1216 37.2915 28.1216C35.7143 28.1216 34.2442 28.5725 33.0072 29.3506C32.9973 29.3577 32.9872 29.3647 32.9768 29.3714C30.7808 30.7668 29.329 33.1944 29.329 35.9548C29.329 37.4468 29.7534 38.8414 30.49 40.0285C30.5141 40.0674 30.5385 40.106 30.5633 40.1445C30.5755 40.1633 30.5877 40.1821 30.6 40.2009C30.6833 40.3275 30.7703 40.4517 30.861 40.5737C30.8625 40.5757 30.8639 40.5777 30.8653 40.5797C31.4409 41.352 32.157 42.017 32.9769 42.5382C32.9778 42.5388 32.9786 42.5393 32.9794 42.5398C34.2221 43.3287 35.7025 43.7866 37.2915 43.7866C41.6895 43.7866 45.2547 40.2799 45.2548 35.9541ZM32.0175 19.3886C32.0175 18.0369 30.903 16.9406 29.5287 16.9406H25.9776C25.9688 16.9409 25.9599 16.9412 25.951 16.9412H20.8096C20.8006 16.9412 20.7918 16.9409 20.7829 16.9406H17.2325C15.8582 16.9406 14.7437 18.0369 14.7437 19.3886V43.8288C14.7437 45.1805 15.8582 46.2767 17.2325 46.2767H29.5287C30.903 46.2767 32.0175 45.1805 32.0175 43.8288V43.3776C31.6517 43.1257 31.3053 42.8483 30.9811 42.548V43.8288C30.9811 44.6171 30.3302 45.2573 29.5287 45.2573H17.2325C16.431 45.2573 15.7802 44.6171 15.7801 43.8288V36.771C15.7801 35.9826 16.431 35.3425 17.2325 35.3425H21.1488C21.4923 35.3425 21.7707 35.6163 21.7707 35.9541C21.7707 36.2919 21.4923 36.5657 21.1488 36.5658H17.2325C17.1178 36.5658 17.0239 36.6582 17.0239 36.771V39.6879H28.9011C28.5874 39.0068 28.3569 38.2808 28.2223 37.5223C28.2204 37.5121 28.2187 37.5018 28.2169 37.4915C28.2059 37.4281 28.1955 37.3644 28.1858 37.3005C28.183 37.282 28.1803 37.2635 28.1776 37.2449C28.1759 37.233 28.1741 37.2212 28.1724 37.2093C28.1683 37.1803 28.1644 37.1513 28.1606 37.1222C28.1587 37.1074 28.1568 37.0926 28.1549 37.0778C28.1525 37.0588 28.1502 37.0398 28.148 37.0208C28.1463 37.0064 28.1445 36.9919 28.1428 36.9775C28.1397 36.9504 28.1367 36.9232 28.1339 36.896C28.1323 36.8807 28.1307 36.8654 28.1292 36.8501C28.1272 36.8304 28.1253 36.8106 28.1235 36.7907C28.1223 36.7784 28.1211 36.7661 28.12 36.7538C28.1172 36.7221 28.1146 36.6904 28.1121 36.6586C28.1112 36.6465 28.1103 36.6344 28.1094 36.6223C28.108 36.6035 28.1067 36.5846 28.1054 36.5658H23.5672C23.2237 36.5658 22.9453 36.2919 22.9453 35.9541C22.9453 35.6163 23.2237 35.3425 23.5672 35.3425H28.1055C28.2966 32.5239 29.7987 30.0583 32.0175 28.5305V19.3886ZM25.3291 14.6673C25.3291 14.146 24.8992 13.7233 24.3693 13.7233H22.3911C21.8612 13.7233 21.4314 14.1461 21.4314 14.6673V15.7173H25.3291V14.6673ZM26.5728 15.7173H29.5287C31.5899 15.7173 33.2612 17.3613 33.2612 19.3886V27.8098C34.4785 27.226 35.8461 26.8983 37.2915 26.8983C42.3764 26.8983 46.4985 30.9527 46.4985 35.9541C46.4985 40.9555 42.3764 45.0099 37.2915 45.0099C35.8423 45.0099 34.4713 44.6804 33.2516 44.0936C33.1135 45.9973 31.4993 47.5 29.5287 47.5H17.2325C15.1714 47.5 13.5 45.8561 13.5 43.8288V19.3886C13.5 17.3613 15.1714 15.7173 17.2325 15.7173H20.1877V14.6673C20.1877 13.4704 21.1744 12.5 22.3911 12.5H24.3701L24.3708 12.5001C25.5869 12.5008 26.5728 13.4709 26.5728 14.6673V15.7173Z" fill="white"/>
</svg>
