<svg width="60" height="60" viewBox="0 0 60 60" fill="none" xmlns="http://www.w3.org/2000/svg">
<rect width="60" height="60" rx="10" fill="#0B20B5"/>
<path d="M28.0706 18.8444C27.4263 18.8444 26.8476 19.0779 26.3794 19.4781C25.7239 20.0377 25.4972 20.9134 25.7245 21.7573C25.8255 22.1318 25.6867 22.5154 25.3661 22.6171C24.9876 22.7366 24.6415 22.565 24.5169 22.1385C23.9235 22.6165 23.5568 23.2625 23.5952 24.0365C23.6418 24.979 24.4319 25.7972 25.3112 25.9149C25.4771 25.2634 25.7629 24.4851 26.3664 24.1603C26.6362 24.015 26.9687 24.1296 27.1004 24.3478C27.2498 24.5948 27.2462 24.9484 27.0147 25.1654C26.7124 25.4491 26.5128 25.8095 26.4916 26.2066C26.4685 26.6484 26.6486 27.0364 26.9693 27.3471C27.4517 27.8147 28.1739 27.8459 28.7042 27.4053C28.9711 27.1835 29.3578 27.1424 29.5899 27.4096C29.822 27.6768 29.7859 28.1107 29.4925 28.3546C28.8358 28.9 28.0204 29.079 27.1706 28.8449C26.4685 28.6518 25.8219 28.1187 25.5096 27.3158C24.8765 27.2031 24.3168 27.0033 23.8013 26.6546C22.5494 25.8095 22.0811 24.2829 22.5287 22.8243C22.8364 21.8223 23.6064 21.2076 24.3929 20.6566C24.8293 18.3897 26.7986 17.232 28.9433 17.661C30.0895 16.4427 31.6313 15.9064 33.2339 16.0842C34.7101 16.2478 36.0842 17.1033 36.964 18.4712C38.0411 18.2769 39.1022 18.5907 39.8492 19.3439C40.6375 20.1247 40.9729 21.2217 40.8023 22.3751C41.7223 22.9683 42.2549 23.9452 42.3063 24.9852C42.3665 26.1036 41.9112 27.1491 41.0273 27.8184C39.8846 28.6837 38.3352 28.6286 37.225 27.7577C36.4562 28.5575 34.6416 29.0735 34.4869 28.1444C34.432 27.8153 34.5908 27.3937 34.9599 27.3857C35.7252 27.3704 36.3245 27.0131 36.7314 26.3488C36.8973 26.0785 37.4311 26.0883 37.6148 26.3322C38.197 27.1038 39.156 27.4004 40.0016 26.9518C40.6706 26.597 41.0963 25.9228 41.081 25.158C41.0662 24.4324 40.6647 23.7141 39.9726 23.401C39.6502 23.2551 39.3455 22.9928 39.4843 22.5669C39.737 21.7886 39.6101 20.9606 39.0774 20.3704C38.5448 19.7803 37.7222 19.5161 36.9894 19.8066C36.5483 19.9819 36.2436 19.8072 36.0322 19.4046C35.4045 18.2095 34.2106 17.4263 32.8902 17.3362C30.9522 17.2045 29.2752 18.5644 28.8099 20.4826C28.7266 20.8264 28.3469 20.9318 28.044 20.8583C27.7647 20.7908 27.5562 20.4348 27.6359 20.102C27.7405 19.6669 27.8993 19.2973 28.0711 18.8438L28.0706 18.8444Z" fill="white"/>
<path d="M28.7644 39.001C28.6191 39.1671 28.4603 39.145 28.328 39.0776C28.2335 39.0298 28.0794 38.8637 28.1497 38.7007L30.3245 33.679L26.9616 33.6551C26.7927 33.6539 26.6782 33.5791 26.6333 33.4314C26.5943 33.3034 26.5896 33.1814 26.7112 33.0411L33.4677 25.2603C33.5799 25.131 33.8492 25.1997 33.9271 25.2849C34.0358 25.405 34.0623 25.557 33.9879 25.7384L31.6962 31.3478L34.7479 31.3649C34.8884 31.3992 34.9623 31.5175 34.9835 31.6131C35.0231 31.7896 34.9835 31.8926 34.8625 32.0317L28.7656 39.001H28.7644Z" fill="white"/>
<path d="M31.2911 22.9315C30.3044 22.6735 29.346 23.3047 29.1447 24.3196C29.0673 24.7082 28.8175 24.9754 28.4325 24.9251C28.0676 24.8773 27.8397 24.5402 27.9129 24.126C28.2194 22.3849 29.8031 21.3136 31.4754 21.6452C31.8568 21.7211 32.1178 21.9749 32.0753 22.3867C32.0375 22.7483 31.7068 23.04 31.2917 22.9315H31.2911Z" fill="white"/>
<path d="M36.4013 22.9266C36.8141 22.8886 37.1329 23.1246 37.1565 23.5039C37.1837 23.9341 36.8967 24.175 36.4911 24.2093C34.8146 24.3533 33.4081 23.1295 33.2333 21.3957C33.1967 21.0354 33.3266 20.6983 33.6466 20.6125C33.9832 20.5224 34.4143 20.6805 34.4373 21.0862C34.4981 22.1581 35.2953 23.0284 36.4013 22.926V22.9266Z" fill="white"/>
<path d="M42.3269 46.5758C42.3954 47.0661 42.122 47.4234 41.6603 47.4203C41.2865 47.4179 41.0066 47.0881 41.0178 46.5807L40.1486 41.7846C39.8156 38.8037 39.9779 35.8632 41.5693 33.402C42.3411 32.2088 42.9458 30.9672 43.4211 29.6214C44.4262 26.7753 44.4356 23.7809 43.5959 20.8975C43.1495 19.3647 42.4244 18.0471 41.2475 16.9936C40.3429 16.1841 39.352 15.5645 38.2242 15.0956C35.2209 13.8485 31.362 13.4931 28.2117 14.2003C27.6861 14.3179 27.2427 14.4804 26.7402 14.7028C24.3977 15.7398 22.4709 17.5967 21.2603 19.9237C20.2559 21.8547 20.361 23.1846 19.8798 25.0048C19.3483 27.0155 17.8992 28.4594 16.6645 30.0467L15.9234 30.9984C16.5157 31.425 17.1446 31.6364 17.8236 31.7608C18.1354 31.8178 18.4183 31.9925 18.5423 32.2082C18.7159 32.5103 18.7608 32.8468 18.6362 33.1557L18.1691 34.317C18.4384 34.9102 18.5937 35.5519 18.4254 36.1868C18.1779 37.1208 18.8942 37.2397 18.8759 38.1216C18.8564 39.0807 18.3616 40.3064 18.6108 40.91C19.0117 41.8796 20.0345 42.2902 21.0129 42.118C23.2769 41.7196 27.1169 40.8291 27.8214 43.5477C28.1089 44.6588 28.3186 45.7803 28.3629 46.9374C28.377 47.3082 28.0015 47.5024 27.7204 47.5C27.4393 47.4975 27.1358 47.321 27.0956 46.9729C26.9705 45.898 26.8541 44.8359 26.5288 43.7947C26.2288 42.835 24.3628 42.9373 23.3064 43.1028L20.9001 43.4803C19.3513 43.7236 17.4215 42.5384 17.268 40.8163C17.1623 39.631 17.6985 38.3146 17.5449 38.0793C17.0737 37.3561 16.9532 36.5539 17.1924 35.721C17.2556 35.501 17.1068 35.1744 17.0277 34.9856C16.7141 34.2435 16.9574 33.7268 17.2733 33.0245C15.9707 32.7726 13.9205 31.7314 14.6544 30.5308C14.945 30.0559 15.2715 29.6404 15.6305 29.2138C16.4029 28.297 17.1168 27.3777 17.8089 26.3935C18.2689 25.7396 18.5836 25.0581 18.7283 24.2626L19.1322 22.0435C19.3276 20.971 19.7215 19.9923 20.2406 19.0307C21.4847 16.7271 23.3702 14.8897 25.6507 13.7229C26.7036 13.1842 27.7605 12.8655 28.9297 12.6976C31.4647 12.3342 34.0151 12.4733 36.5011 13.1051C40.2059 14.0471 43.5032 16.1798 44.7102 20.0799C45.508 22.6588 45.7524 25.3461 45.2068 28.0102C44.7722 30.1319 43.9538 32.0985 42.8094 33.9052C42.1563 34.9366 41.688 35.9686 41.4831 37.2017C41.2304 38.7209 41.2564 40.2524 41.4518 41.8011L42.3264 46.5764L42.3269 46.5758Z" fill="white"/>
</svg>
