<svg width="60" height="60" viewBox="0 0 60 60" fill="none" xmlns="http://www.w3.org/2000/svg">
<rect width="60" height="60" rx="10" fill="#0B20B5"/>
<path d="M25.1094 36.123C25.4699 36.0088 25.8554 36.2088 25.9697 36.5693C26.0839 36.9293 25.8849 37.3137 25.5254 37.4287L25.5137 37.4336C25.4975 37.4397 25.4692 37.4499 25.4336 37.4658C25.3615 37.4981 25.2603 37.55 25.1514 37.623C24.9284 37.7725 24.7113 37.986 24.6025 38.2783C24.4707 38.6329 24.0762 38.8135 23.7217 38.6816C23.3671 38.5498 23.1865 38.1553 23.3184 37.8008C23.5609 37.1487 24.0216 36.7303 24.3887 36.4844C24.5746 36.3598 24.7467 36.2728 24.874 36.2158C24.938 36.1872 24.9921 36.1654 25.0322 36.1504L25.0986 36.127C25.1009 36.1262 25.1037 36.1256 25.1055 36.125L25.1094 36.123C25.1107 36.1266 25.1248 36.1716 25.2939 36.7051L25.1094 36.123Z" fill="white"/>
<path d="M25.8584 31.3105C26.1259 31.0431 26.5597 31.0431 26.8271 31.3105C27.0943 31.578 27.0943 32.0109 26.8271 32.2783C25.6459 33.4596 23.7274 33.5633 22.5459 32.3809C22.2788 32.1132 22.2794 31.6794 22.5469 31.4121C22.8145 31.145 23.2483 31.1456 23.5156 31.4131C24.106 32.0036 25.1544 32.0143 25.8584 31.3105Z" fill="white"/>
<path d="M24.6875 29.3955C25.0656 29.3957 25.3721 29.7029 25.3721 30.0811C25.3719 30.459 25.0655 30.7654 24.6875 30.7656C24.3093 30.7656 24.0022 30.4592 24.002 30.0811C24.002 29.7028 24.3092 29.3955 24.6875 29.3955Z" fill="white"/>
<path d="M35.3125 29.3955C35.6908 29.3955 35.998 29.7028 35.998 30.0811C35.9978 30.4592 35.6907 30.7656 35.3125 30.7656C34.9345 30.7654 34.6281 30.459 34.6279 30.0811C34.6279 29.7029 34.9344 29.3957 35.3125 29.3955Z" fill="white"/>
<path fill-rule="evenodd" clip-rule="evenodd" d="M30 12.5C30.3782 12.5 30.6844 12.8065 30.6846 13.1846V13.7891C32.0332 13.8652 33.3307 14.1645 34.5508 14.6562C34.9015 14.7976 35.0718 15.1961 34.9307 15.5469C34.7893 15.8977 34.3899 16.068 34.0391 15.9268C32.9771 15.4988 31.8522 15.2365 30.6846 15.1621V23.9922C31.8613 23.3196 32.7654 22.65 33.3926 22.1279C33.7543 21.8268 34.0235 21.5749 34.2002 21.4014C34.2885 21.3146 34.3537 21.2473 34.3955 21.2031C34.4164 21.181 34.4322 21.1644 34.4414 21.1543C34.4456 21.1497 34.4485 21.1464 34.4502 21.1445L34.4512 21.1436C34.7018 20.8605 35.1347 20.8336 35.418 21.084C35.7013 21.3345 35.728 21.7674 35.4775 22.0508L35.4766 22.0518L35.4688 22.0605C35.4646 22.0652 35.4591 22.0715 35.4521 22.0791C35.4377 22.0949 35.417 22.1167 35.3906 22.1445C35.3378 22.2004 35.2609 22.28 35.1602 22.3789C34.9587 22.5767 34.6614 22.8537 34.2686 23.1807C34.2622 23.186 34.2554 23.191 34.249 23.1963C34.2935 23.2487 34.3403 23.3057 34.3926 23.3643C34.7595 23.775 35.3175 24.3243 36.0713 24.8643C37.4485 25.8508 39.4822 26.8064 42.2266 26.8398C41.7082 23.9254 40.4632 21.3349 38.7324 19.3389C38.4847 19.0531 38.5152 18.6209 38.8008 18.373C39.0866 18.1252 39.5197 18.1556 39.7676 18.4414C41.7008 20.6708 43.0653 23.5521 43.6064 26.7676C43.6193 26.7674 43.6326 26.7676 43.6455 26.7676C45.7743 26.7677 47.5 28.4932 47.5 30.6221C47.5 32.7509 45.7743 34.4764 43.6455 34.4766C43.5287 34.4766 43.4117 34.4715 43.2959 34.4609C41.6748 40.8221 36.7289 45.6284 30.6846 45.9678V46.8154C30.6844 47.1935 30.3782 47.5 30 47.5C29.6218 47.5 29.3156 47.1935 29.3154 46.8154V45.9678C23.2711 45.6284 18.3252 40.822 16.7041 34.4609C16.5893 34.4714 16.4723 34.4766 16.3545 34.4766C14.2257 34.4764 12.5 32.7509 12.5 30.6221C12.5 28.4932 14.2257 26.7677 16.3545 26.7676C16.3674 26.7676 16.3806 26.7674 16.3936 26.7676C17.5875 19.6831 22.8136 14.1527 29.3154 13.7881V13.1846C29.3156 12.8065 29.6218 12.5 30 12.5ZM29.3154 26.2148C26.2835 27.5588 22.1444 28.6096 16.9199 28.1963C16.9029 28.1949 16.8867 28.1891 16.8701 28.1865C16.8606 28.1851 16.8503 28.1864 16.8408 28.1846C16.6808 28.1529 16.5172 28.1367 16.3545 28.1367C14.9823 28.1369 13.8701 29.2498 13.8701 30.6221C13.8701 31.9943 14.9823 33.1073 16.3545 33.1074C16.3648 33.1074 16.3754 33.1056 16.3857 33.1055L16.2227 32.4062C16.1366 32.0379 16.366 31.669 16.7344 31.583C17.1027 31.4971 17.4706 31.7264 17.5566 32.0947L17.8887 33.5146C17.8893 33.5175 17.889 33.5206 17.8896 33.5234C17.8899 33.5244 17.8904 33.5254 17.8906 33.5264C19.228 39.7192 23.8476 44.2428 29.3154 44.5938V41.0381C28.0587 40.8459 26.8355 40.2535 25.8584 39.2764C25.5911 39.0089 25.591 38.575 25.8584 38.3076C26.1258 38.0404 26.5597 38.0404 26.8271 38.3076C27.5476 39.0281 28.4205 39.4727 29.3154 39.6494V35.2324C28.7195 35.0865 28.151 34.779 27.6875 34.3154C27.4205 34.048 27.4205 33.6151 27.6875 33.3477C27.955 33.0802 28.3888 33.0802 28.6562 33.3477C28.8557 33.5471 29.0806 33.6954 29.3154 33.7969V26.2148ZM33.1611 24.0312C32.5018 24.5021 31.7029 25.0153 30.7627 25.5146C30.7371 25.5283 30.7104 25.5401 30.6846 25.5537V33.8643C30.93 33.7815 31.1561 33.6475 31.3428 33.4609C31.6103 33.1934 32.044 33.1934 32.3115 33.4609C32.5789 33.7284 32.579 34.1622 32.3115 34.4297C31.8491 34.892 31.2811 35.1701 30.6846 35.2783V39.7109C31.6124 39.6098 32.4924 39.2166 33.1738 38.5352C33.4413 38.2677 33.8751 38.2677 34.1426 38.5352C34.4098 38.8027 34.4099 39.2365 34.1426 39.5039C33.1816 40.4649 31.955 40.9852 30.6846 41.0879V44.5938C36.1524 44.2429 40.772 39.7192 42.1094 33.5264L42.1172 33.4922C42.1633 33.3219 42.2738 33.1753 42.4258 33.084C42.5879 32.9866 42.7829 32.9603 42.9648 33.0117C43.1873 33.0747 43.4163 33.1074 43.6455 33.1074C45.0177 33.1073 46.1299 31.9943 46.1299 30.6221C46.1299 29.2498 45.0177 28.1369 43.6455 28.1367C43.4795 28.1367 43.3167 28.1534 43.1592 28.1846C43.1455 28.1873 43.131 28.1866 43.1172 28.1885C43.0981 28.191 43.0791 28.1963 43.0596 28.1973C39.5602 28.3703 36.9782 27.1987 35.2734 25.9775C34.4237 25.3688 33.7922 24.7478 33.3711 24.2764C33.2937 24.1897 33.2246 24.1071 33.1611 24.0312ZM29.3154 15.1611C23.6587 15.5245 18.9063 20.3623 17.7646 26.8779C22.7118 27.1395 26.5641 26.0216 29.3154 24.707V15.1611Z" fill="white"/>
<path d="M42.0625 42.1582C42.4406 42.1585 42.7471 42.4656 42.7471 42.8438V43.5596H43.4629C43.8411 43.5597 44.1475 43.8659 44.1475 44.2441C44.1474 44.6223 43.8411 44.9286 43.4629 44.9287H42.7471V45.6436C42.7471 46.0217 42.4406 46.3288 42.0625 46.3291C41.6842 46.3291 41.377 46.0218 41.377 45.6436V44.9287H40.6621C40.2838 44.9287 39.9776 44.6224 39.9775 44.2441C39.9775 43.8658 40.2838 43.5596 40.6621 43.5596H41.377V42.8438C41.377 42.4655 41.6842 42.1582 42.0625 42.1582Z" fill="white"/>
<path d="M44.6641 15.0977C45.0421 15.0978 45.3484 15.4042 45.3486 15.7822V16.498H46.0635C46.4418 16.498 46.749 16.8053 46.749 17.1836C46.7489 17.5618 46.4417 17.8682 46.0635 17.8682H45.3486V18.584C45.3486 18.9622 45.0422 19.2684 44.6641 19.2686C44.2858 19.2686 43.9785 18.9623 43.9785 18.584V17.8682H43.2627C42.8847 17.868 42.5783 17.5616 42.5781 17.1836C42.5781 16.8054 42.8846 16.4983 43.2627 16.498H43.9785V15.7822C43.9787 15.4041 44.2859 15.0977 44.6641 15.0977Z" fill="white"/>
<path d="M37.0068 16.1143C37.385 16.1143 37.6912 16.4207 37.6914 16.7988C37.6914 17.1771 37.3851 17.4844 37.0068 17.4844C36.6285 17.4844 36.3223 17.1771 36.3223 16.7988C36.3224 16.4207 36.6286 16.1143 37.0068 16.1143Z" fill="white"/>
</svg>
