<svg width="60" height="60" viewBox="0 0 60 60" fill="none" xmlns="http://www.w3.org/2000/svg">
<rect width="60" height="60" rx="10" fill="#0B20B5"/>
<path d="M12.4997 43.4117V35.8353C12.4997 35.3837 12.8658 35.0177 13.3174 35.0177C13.769 35.0177 14.135 35.3837 14.135 35.8353V43.4117C14.135 44.7665 15.2336 45.8647 16.588 45.8647H24.1644C24.616 45.8647 24.9821 46.2308 24.9821 46.6823C24.9821 47.1339 24.616 47.5 24.1644 47.5H16.588C14.3306 47.5 12.4997 45.6699 12.4997 43.4117ZM45.8649 43.4117V35.8353C45.865 35.3837 46.231 35.0177 46.6826 35.0177C47.1342 35.0177 47.5003 35.3837 47.5003 35.8353V43.4117C47.5003 45.6698 45.67 47.5 43.412 47.5H35.8356C35.384 47.5 35.0179 47.1339 35.0179 46.6823C35.0179 46.2308 35.384 45.8647 35.8356 45.8647H43.412C44.7669 45.8647 45.8649 44.7666 45.8649 43.4117ZM35.363 24.3876C35.363 21.7531 33.2273 19.6174 30.5928 19.6174C27.9583 19.6174 25.8226 21.7531 25.8226 24.3876C25.8226 27.0221 27.9583 29.1578 30.5928 29.1578C33.2273 29.1578 35.363 27.0221 35.363 24.3876ZM12.4997 24.1641V16.5883C12.4997 14.3301 14.3306 12.5 16.588 12.5H24.1644C24.616 12.5 24.9821 12.8661 24.9821 13.3177C24.9821 13.7692 24.616 14.1353 24.1644 14.1353H16.588C15.2336 14.1353 14.135 15.2335 14.135 16.5883V24.1641C14.135 24.6157 13.769 24.9818 13.3174 24.9818C12.8658 24.9818 12.4997 24.6157 12.4997 24.1641ZM45.8649 24.1641V16.5883C45.8649 15.2334 44.7669 14.1353 43.412 14.1353H35.8356C35.384 14.1353 35.0179 13.7692 35.0179 13.3177C35.0179 12.8661 35.384 12.5 35.8356 12.5H43.412C45.67 12.5 47.5003 14.3302 47.5003 16.5883V24.1641C47.5002 24.6157 47.1342 24.9818 46.6826 24.9818C46.231 24.9818 45.865 24.6157 45.8649 24.1641ZM36.9983 24.3876C36.9983 26.6109 35.8656 28.5695 34.1458 29.7181C38.7489 31.2144 42.0765 35.5396 42.0765 40.6415C42.0765 41.0931 41.7104 41.4591 41.2588 41.4591C40.8073 41.4591 40.4412 41.0931 40.4412 40.6415C40.4412 35.2027 36.0316 30.7931 30.5928 30.7931C25.154 30.7931 20.7444 35.2022 20.7444 40.6415C20.7444 41.0931 20.3783 41.4591 19.9268 41.4591C19.4752 41.4591 19.1091 41.0931 19.1091 40.6415C19.1091 35.5392 22.4366 31.2143 27.0397 29.718C25.32 28.5694 24.1873 26.6108 24.1873 24.3876C24.1873 20.85 27.0551 17.9821 30.5928 17.9821C34.1305 17.9821 36.9983 20.85 36.9983 24.3876Z" fill="white"/>
</svg>
